<svg id="Github" xmlns="http://www.w3.org/2000/svg" width="129.494" height="126.901" viewBox="0 0 129.494 126.901">
  <g id="Tracé_3" data-name="Tracé 3" transform="translate(-0.914 -160)" fill="#ff9e27">
    <path d="M 84.47373962402344 286.6510620117188 C 83.84211730957031 286.6510925292969 83.32965087890625 286.5481872558594 82.99175262451172 286.3535461425781 C 82.25534057617188 285.9292907714844 81.90526580810547 285.004150390625 81.840576171875 284.8166809082031 C 81.84420776367188 283.7616271972656 81.8924560546875 269.4373474121094 81.840087890625 268.4594116210938 C 81.83613586425781 268.3859252929688 81.8336181640625 268.2366943359375 81.83013916015625 268.0300903320312 C 81.69630432128906 260.1119995117188 80.27570343017578 255.2301635742188 77.7032470703125 253.7709655761719 C 79.02665710449219 253.6466064453125 81.54779052734375 253.3687286376953 84.38253784179688 252.7079010009766 C 88.49839019775391 251.7484436035156 91.86810302734375 250.3292083740234 94.39808654785156 248.4896545410156 C 97.82638549804688 245.9969024658203 100.2181701660156 243.7039947509766 101.9251403808594 241.2737884521484 C 103.4709014892578 239.0730590820312 104.492073059082 236.6782989501953 105.138801574707 233.7373504638672 C 105.699089050293 231.1895599365234 106.278434753418 228.5550537109375 106.4993743896484 225.7228393554688 C 106.7400512695312 222.6377105712891 106.5406188964844 219.6196594238281 105.8717575073242 216.2248382568359 C 105.4548873901367 214.1089782714844 104.4994735717773 210.8502655029297 102.3152694702148 207.3414306640625 C 101.2212066650391 205.5838623046875 100.2626342773438 204.4720458984375 99.95119476318359 204.1268768310547 C 100.2163009643555 203.3553466796875 101.4181976318359 199.6369323730469 101.3479690551758 195.8551330566406 C 101.2695388793945 191.6309204101562 99.60175323486328 187.2232513427734 99.58490753173828 187.1792144775391 L 99.52581787109375 187.0247039794922 L 99.36050415039062 187.0186767578125 C 99.35600280761719 187.0185089111328 99.24812316894531 187.0146636962891 99.05072021484375 187.0146636962891 C 98.04820251464844 187.0146636962891 94.48710632324219 187.1189422607422 90.75403594970703 188.4607849121094 C 86.72193908691406 189.9100952148438 82.27729034423828 193.1949310302734 81.56586456298828 193.7314147949219 C 80.49861145019531 193.4593658447266 72.46700286865234 191.4791717529297 64.92728424072266 191.4791717529297 C 57.41972732543945 191.4791717529297 50.05913162231445 193.4441986083984 49.02502059936523 193.7311096191406 C 48.3193473815918 193.1897125244141 44.05070114135742 189.9774780273438 40.10391998291016 188.3900299072266 C 37.15920257568359 187.2056427001953 34.28080368041992 187.0287933349609 32.82712173461914 187.0287933349609 C 32.03303909301758 187.0287933349609 31.55965423583984 187.0784912109375 31.53988647460938 187.0806121826172 L 31.38236999511719 187.0974884033203 L 31.33035469055176 187.2471313476562 C 31.31740379333496 187.2843933105469 30.03205490112305 191.0252838134766 29.77503776550293 195.4471588134766 C 29.54177093505859 199.4605407714844 30.55573272705078 203.4508056640625 30.75804138183594 204.1985931396484 C 30.09035301208496 205.0587158203125 25.69900131225586 210.8366088867188 25.0149040222168 214.8645477294922 C 24.61760330200195 217.2038116455078 24.21280479431152 220.0361633300781 24.22292137145996 223.3067321777344 C 24.23513793945312 227.2583770751953 24.87925338745117 230.9528961181641 26.13738822937012 234.2877044677734 C 27.46777153015137 237.8140106201172 28.53422164916992 240.4791870117188 30.14810371398926 242.6667633056641 C 31.63821983337402 244.6865386962891 33.62437057495117 246.3833618164062 37.23208618164062 248.7187652587891 C 39.22155380249023 250.0066375732422 42.75017166137695 251.7763214111328 48.26243591308594 252.8934478759766 C 50.69227600097656 253.3859100341797 52.67961120605469 253.5798034667969 53.56400299072266 253.6480407714844 C 52.87802505493164 254.4852294921875 51.27048110961914 256.5356750488281 50.54277038574219 258.2114562988281 C 49.74721908569336 260.0434875488281 49.55243301391602 262.0397033691406 49.5111083984375 262.6162109375 C 48.82745361328125 262.8877868652344 45.77114868164062 264.0257568359375 42.57058715820312 264.0259399414062 C 41.65991973876953 264.0259704589844 40.8043212890625 263.9336242675781 40.02753829956055 263.7514038085938 C 35.45613861083984 262.6791687011719 33.49345397949219 261.3898010253906 31.95032119750977 258.4451293945312 C 30.32638740539551 255.3463134765625 26.358154296875 251.7650756835938 24.24863815307617 251.0069427490234 C 23.17912101745605 250.6225891113281 21.39413833618164 250.2088928222656 20.00240325927734 250.2088928222656 C 19.08045387268066 250.2088928222656 18.45211982727051 250.3922424316406 18.1348705291748 250.7538452148438 C 17.9433536529541 250.9721374511719 17.86740493774414 251.2439117431641 17.90910339355469 251.5616149902344 C 18.02972030639648 252.4806518554688 18.60948753356934 252.8882751464844 19.57000350952148 253.5636444091797 C 20.61445426940918 254.2980194091797 22.19283676147461 255.4077758789062 24.29888725280762 257.9547729492188 C 25.79773712158203 259.7674255371094 26.63655471801758 261.549560546875 27.44775390625 263.2730407714844 C 28.78608703613281 266.116455078125 30.05020332336426 268.8021545410156 34.03550338745117 271.0996398925781 C 36.50700378417969 272.5244140625 39.69038772583008 273.246826171875 43.49721908569336 273.246826171875 C 46.30068588256836 273.246826171875 48.64083099365234 272.8370971679688 49.47806549072266 272.6701049804688 C 49.41944885253906 273.5423889160156 49.27556228637695 276.0133361816406 49.31880569458008 278.6992797851562 C 49.33111953735352 279.4470520019531 49.39388656616211 280.2374267578125 49.45458602905273 281.0017700195312 C 49.55133819580078 282.2201538085938 49.64273834228516 283.3709716796875 49.50545501708984 284.0871887207031 C 49.31220245361328 285.0954284667969 48.85958862304688 285.8052673339844 48.12178802490234 286.2573547363281 L 48.11896896362305 286.2590942382812 L 48.11618804931641 286.2608947753906 C 47.78968811035156 286.4730529785156 47.29533767700195 286.5851745605469 46.68655395507812 286.5851745605469 C 46.22927093505859 286.5851745605469 45.85286712646484 286.5213928222656 45.78270721435547 286.5087280273438 C 39.39297103881836 284.5535888671875 33.38668823242188 281.6002197265625 27.93153762817383 277.7308349609375 C 22.5194206237793 273.8919677734375 17.7647533416748 269.2344360351562 13.79962062835693 263.8876037597656 C 9.774904251098633 258.4603881835938 6.64873743057251 252.4350128173828 4.507954120635986 245.9788665771484 C 2.289204120635986 239.2875823974609 1.164204120635986 232.2286834716797 1.164204120635986 224.9982147216797 C 1.164204120635986 216.2411346435547 2.85465407371521 207.76123046875 6.188587188720703 199.7940673828125 C 7.795470714569092 195.9540710449219 9.785820960998535 192.2537536621094 12.10435390472412 188.7958831787109 C 14.40502071380615 185.3646697998047 17.0497875213623 182.1407165527344 19.96518707275391 179.2135772705078 C 22.88516998291016 176.2818450927734 26.10257148742676 173.6218719482422 29.52798652648926 171.3075714111328 C 32.99045562744141 168.9682159423828 36.69868850708008 166.9598083496094 40.54968643188477 165.3381500244141 C 48.5672721862793 161.9618988037109 57.1300048828125 160.25 66.00000762939453 160.25 C 74.80875396728516 160.25 83.32915496826172 162.0488433837891 91.32453918457031 165.5965728759766 C 95.12523651123047 167.2830200195312 98.79241943359375 169.3677062988281 102.2241897583008 171.7926940917969 C 105.5933227539062 174.1734161376953 108.76513671875 176.9026947021484 111.6515502929688 179.9047393798828 C 114.5121536254883 182.8799133300781 117.1132202148438 186.1443786621094 119.3825225830078 189.6074829101562 C 121.6545867919922 193.0747985839844 123.609504699707 196.7648315429688 125.192985534668 200.5750885009766 C 126.7944869995117 204.4286804199219 128.0280151367188 208.4345550537109 128.8593139648438 212.4814147949219 C 129.7078094482422 216.6119689941406 130.1449279785156 220.8240966796875 130.1585083007812 225.0008087158203 C 130.1585083007812 232.1036376953125 129.0281524658203 239.0670318603516 126.7988510131836 245.6967468261719 C 124.6556243896484 252.0705261230469 121.5275573730469 258.0550231933594 117.5015563964844 263.4840087890625 C 113.5519866943359 268.8099670410156 108.8203735351562 273.4938354492188 103.438117980957 277.4056091308594 C 98.03226470947266 281.3345031738281 92.09303283691406 284.3946838378906 85.78450775146484 286.5014038085938 C 85.59349822998047 286.5596313476562 85.07215118408203 286.6510620117188 84.47373962402344 286.6510620117188 Z" stroke="none"/>
    <path d="M 66.00000762939453 160.5 C 57.16350555419922 160.5 48.6334228515625 162.2052917480469 40.64672088623047 165.5685424804688 C 36.81072235107422 167.1839294433594 33.11692047119141 169.1844787597656 29.66795349121094 171.5147094726562 C 26.25585174560547 173.8200073242188 23.05097198486328 176.4696350097656 20.14231872558594 179.3899841308594 C 17.23822021484375 182.3057861328125 14.60372161865234 185.5172119140625 12.31198883056641 188.9351196289062 C 10.00247192382812 192.3795471191406 8.019851684570312 196.0655059814453 6.419204711914062 199.8905639648438 C 3.09814453125 207.8270111083984 1.414199829101562 216.2744445800781 1.414199829101562 224.9982147216797 C 1.414199829101562 232.201904296875 2.534927368164062 239.2343292236328 4.7452392578125 245.9001617431641 C 6.877655029296875 252.3311004638672 9.991554260253906 258.3328247070312 14.00041961669922 263.7386779785156 C 17.94982147216797 269.0643310546875 22.68558502197266 273.703369140625 28.076171875 277.5269165039062 C 33.50550842285156 281.3779907226562 39.48237609863281 284.31787109375 45.84128570556641 286.2651977539062 C 45.930908203125 286.2807312011719 46.2744140625 286.3351745605469 46.68658447265625 286.3351745605469 C 47.24687194824219 286.3351745605469 47.69412231445312 286.2369995117188 47.97997283935547 286.05126953125 L 47.98551940917969 286.0476684570312 L 47.99117279052734 286.044189453125 C 48.67500305175781 285.6251831054688 49.07815551757812 284.9884033203125 49.25991821289062 284.0401306152344 C 49.39085388183594 283.3570861816406 49.30075073242188 282.2226257324219 49.20536804199219 281.0215454101562 C 49.14435577392578 280.2533569335938 49.08126831054688 279.4590148925781 49.06884002685547 278.7033081054688 C 49.02996826171875 276.290283203125 49.14167785644531 274.0494995117188 49.20774078369141 272.9781494140625 C 48.1805419921875 273.1695556640625 46.05078125 273.496826171875 43.49725341796875 273.496826171875 C 39.64600372314453 273.496826171875 36.42060089111328 272.76318359375 33.91065216064453 271.3162231445312 C 29.85740661621094 268.9795837402344 28.57707214355469 266.2593994140625 27.2215576171875 263.3795166015625 C 26.41695404052734 261.6700439453125 25.58496856689453 259.9024353027344 24.106201171875 258.1140747070312 C 22.02155303955078 255.5929870605469 20.45970153808594 254.4948120117188 19.42620086669922 253.7681274414062 C 18.44460296630859 253.0779724121094 17.79611968994141 252.6219940185547 17.66122436523438 251.5941467285156 C 17.6104736328125 251.2074584960938 17.70927429199219 250.8598785400391 17.94693756103516 250.5889892578125 C 18.31890106201172 250.1649932861328 18.99125671386719 249.9588928222656 20.00240325927734 249.9588928222656 C 21.424072265625 249.9588928222656 23.24391937255859 250.3802185058594 24.33316802978516 250.7716827392578 C 25.39212036132812 251.1522521972656 26.92552185058594 252.2276306152344 28.43500518798828 253.6483154296875 C 30.06858825683594 255.1858062744141 31.39566802978516 256.84814453125 32.1717529296875 258.3291015625 C 33.67472076416016 261.1970825195312 35.59748840332031 262.4555358886719 40.08464050292969 263.5080261230469 C 40.84253692626953 263.685791015625 41.67891693115234 263.7759399414062 42.57057189941406 263.7759399414062 C 45.54062652587891 263.7759399414062 48.39048004150391 262.7794494628906 49.27434539794922 262.4402465820312 C 49.33806610107422 261.7005004882812 49.56501770019531 259.8354187011719 50.31346893310547 258.1118774414062 C 50.96099853515625 256.6207275390625 52.28733062744141 254.8454742431641 53.07264709472656 253.8588256835938 C 52.05262756347656 253.7663116455078 50.31121063232422 253.5637512207031 48.2127685546875 253.1384582519531 C 42.66211700439453 252.0135345458984 39.10383605957031 250.2282257080078 37.09623718261719 248.9286346435547 C 33.46099090576172 246.5753936767578 31.45650482177734 244.8613433837891 29.94692230224609 242.815185546875 C 28.31397247314453 240.6017608642578 27.24100494384766 237.9212036132812 25.90347290039062 234.3759460449219 C 24.63475036621094 231.0130920410156 23.98522186279297 227.2891387939453 23.97292327880859 223.3074951171875 C 23.96273803710938 220.0180358886719 24.36935424804688 217.1724395751953 24.76844024658203 214.8226928710938 C 25.43991088867188 210.8690185546875 29.60431671142578 205.2885131835938 30.48391723632812 204.1445465087891 C 30.21774291992188 203.1457672119141 29.29757690429688 199.3532257080078 29.52546691894531 195.4326477050781 C 29.78448486328125 190.9761352539062 31.04085540771484 187.3185729980469 31.09422302246094 187.1650390625 L 31.19823455810547 186.8657531738281 L 31.51329040527344 186.83203125 C 31.53358459472656 186.8298645019531 32.01990509033203 186.77880859375 32.82715606689453 186.77880859375 C 34.29891967773438 186.77880859375 37.21348571777344 186.9580078125 40.19721984863281 188.1581115722656 C 44.07015991210938 189.7158203125 48.12827301025391 192.730224609375 49.07907867431641 193.4570007324219 C 50.48256683349609 193.0746002197266 57.63591766357422 191.2291717529297 64.92728424072266 191.2291717529297 C 72.26319122314453 191.2291717529297 80.06060791015625 193.0956878662109 81.51046752929688 193.4595642089844 C 82.47217559814453 192.7369079589844 86.70378112792969 189.6509704589844 90.66947174072266 188.2255249023438 C 94.44060516357422 186.8700256347656 98.03802490234375 186.7646789550781 99.05076599121094 186.7646789550781 C 99.25263977050781 186.7646789550781 99.3648681640625 186.7686767578125 99.36955261230469 186.7688293457031 L 99.70024108886719 186.7808532714844 L 99.81842041015625 187.0899047851562 C 99.88780212402344 187.2713623046875 101.5186920166016 191.5827178955078 101.5979385375977 195.8504638671875 C 101.6662445068359 199.5288391113281 100.5798873901367 203.0509948730469 100.2355041503906 204.0704040527344 C 100.6271896362305 204.5160064697266 101.5223922729492 205.5946350097656 102.5275039672852 207.2093353271484 C 104.731689453125 210.7502746582031 105.6961212158203 214.0401611328125 106.1170349121094 216.176513671875 C 106.7904205322266 219.5942687988281 106.9911193847656 222.6338653564453 106.7486190795898 225.7422790527344 C 106.5263214111328 228.591796875 105.945068359375 231.2349395751953 105.3829727172852 233.7910308837891 C 104.728889465332 236.7653961181641 103.6951370239258 239.1887512207031 102.1296997070312 241.4174652099609 C 100.4064178466797 243.8709106445312 97.99636840820312 246.1824035644531 94.54512023925781 248.6918487548828 C 91.98793792724609 250.5511932373047 88.58779907226562 251.9843139648438 84.43918609619141 252.9514007568359 C 82.02025604248047 253.5152893066406 79.82954406738281 253.8016815185547 78.40953063964844 253.9517822265625 C 79.74976348876953 255.0436553955078 80.73654174804688 257.1290283203125 81.35350036621094 260.1828002929688 C 82.00177001953125 263.3914489746094 82.05867004394531 266.7583618164062 82.08008575439453 268.02587890625 C 82.08340454101562 268.2221374511719 82.08603668212891 268.3771362304688 82.0897216796875 268.446044921875 C 82.14183044433594 269.4189147949219 82.09536743164062 283.4155883789062 82.09072875976562 284.7732849121094 C 82.1749267578125 285.0008544921875 82.50080108642578 285.7821960449219 83.11655426025391 286.1369018554688 C 83.41221618652344 286.3072509765625 83.89420318603516 286.4010620117188 84.47370910644531 286.4010620117188 C 85.06222534179688 286.4010620117188 85.55496215820312 286.3092041015625 85.70853424072266 286.26318359375 C 91.99150848388672 284.1646118164062 97.90696716308594 281.1165161132812 103.2911376953125 277.203369140625 C 108.6528015136719 273.3065795898438 113.3663177490234 268.640625 117.3007507324219 263.3350830078125 C 121.3111190795898 257.9271850585938 124.4270172119141 251.9659881591797 126.5618896484375 245.6170806884766 C 128.7825317382812 239.0130767822266 129.9085083007812 232.0764923095703 129.9085083007812 225.0016326904297 C 129.8949737548828 220.8414916992188 129.4595947265625 216.6460113525391 128.6144256591797 212.53173828125 C 127.7863235473633 208.5004425048828 126.557502746582 204.5099334716797 124.9621200561523 200.6710357666016 C 123.3845901489258 196.8750762939453 121.4369735717773 193.1988677978516 119.1734008789062 189.7445068359375 C 116.9125900268555 186.2943420410156 114.3212203979492 183.0420532226562 111.4713363647461 180.0780029296875 C 108.5958709716797 177.0873718261719 105.4361419677734 174.3684692382812 102.0799179077148 171.9968566894531 C 98.66157531738281 169.5813598632812 95.00881958007812 167.5048522949219 91.22313690185547 165.8250732421875 C 83.2598876953125 162.2916259765625 74.77360534667969 160.5 66.00000762939453 160.5 M 66.00000762939453 160 C 102.4507904052734 160 130.2977447509766 190.9505615234375 130.4085083007812 225 C 130.4085083007812 254.2211303710938 111.3746566772461 278.22021484375 85.86093902587891 286.7394409179688 C 85.64138793945312 286.80712890625 85.08509826660156 286.9010620117188 84.47369384765625 286.9010620117188 C 83.91199493408203 286.9010620117188 83.30380249023438 286.8218383789062 82.86695861816406 286.5701599121094 C 81.95458984375 286.0445556640625 81.59043884277344 284.8565063476562 81.59043884277344 284.8565063476562 C 81.59043884277344 284.8565063476562 81.64389038085938 269.4708557128906 81.59043884277344 268.4727783203125 C 81.5369873046875 267.4746704101562 81.75276947021484 254.728759765625 76.65092468261719 253.6332092285156 C 76.21865844726562 253.5411224365234 87.33291625976562 253.3177032470703 94.25106811523438 248.2874450683594 C 101.1692047119141 243.2571868896484 103.7036895751953 239.0993347167969 104.8946380615234 233.6836547851562 C 106.0855865478516 228.2679748535156 107.0744018554688 223.6221313476562 105.6264724731445 216.2731628417969 C 104.1785202026367 208.9241790771484 99.66555786132812 204.1856842041016 99.66555786132812 204.1856842041016 C 99.66555786132812 204.1856842041016 101.1765518188477 200.0890502929688 101.0980224609375 195.8597412109375 C 101.0194854736328 191.6304626464844 99.35140228271484 187.2684936523438 99.35140228271484 187.2684936523438 C 99.35140228271484 187.2684936523438 99.24589538574219 187.2646484375 99.05078125 187.2646484375 C 98.0257568359375 187.2646484375 94.52606201171875 187.37060546875 90.83860778808594 188.696044921875 C 86.44923400878906 190.2737731933594 81.62066650390625 194.0037536621094 81.62066650390625 194.0037536621094 C 81.62066650390625 194.0037536621094 73.04283905029297 191.7291717529297 64.92728424072266 191.7291717529297 C 56.81173706054688 191.7291717529297 48.97167205810547 194.0058135986328 48.97167205810547 194.0058135986328 C 48.97167205810547 194.0058135986328 44.32417297363281 190.35693359375 40.01063537597656 188.6219787597656 C 37.15355682373047 187.4728088378906 34.37660980224609 187.2787780761719 32.82716369628906 187.2787780761719 C 32.03730010986328 187.2787780761719 31.56650543212891 187.3291931152344 31.56650543212891 187.3291931152344 C 31.56650543212891 187.3291931152344 30.28258514404297 191.0233459472656 30.02462005615234 195.461669921875 C 29.76663970947266 199.8999938964844 31.03256988525391 204.2533111572266 31.03256988525391 204.2533111572266 C 31.03256988525391 204.2533111572266 25.98400115966797 210.6515502929688 25.26136779785156 214.9064178466797 C 24.53871917724609 219.1612854003906 23.51148986816406 226.6193084716797 26.37128448486328 234.1994476318359 C 29.23107147216797 241.7795867919922 30.45393371582031 244.0332183837891 37.36793518066406 248.5088958740234 C 44.28192138671875 252.9845581054688 54.07073974609375 253.4312133789062 54.07073974609375 253.4312133789062 C 54.07073974609375 253.4312133789062 51.68635559082031 256.2056274414062 50.77208709716797 258.31103515625 C 49.85783386230469 260.4163818359375 49.75098419189453 262.7883911132812 49.75098419189453 262.7883911132812 C 49.75098419189453 262.7883911132812 46.28360748291016 264.2759399414062 42.57056427001953 264.2759399414062 C 41.70338439941406 264.2759399414062 40.823486328125 264.1948852539062 39.97045135498047 263.9948120117188 C 35.46492004394531 262.9380187988281 33.3502197265625 261.6550598144531 31.72888946533203 258.5611877441406 C 30.10755157470703 255.4673156738281 26.17433929443359 251.9646759033203 24.16407012939453 251.2422180175781 C 23.07368469238281 250.850341796875 21.33179473876953 250.4588928222656 20.00239562988281 250.4588928222656 C 18.88092803955078 250.4588928222656 18.05305480957031 250.7373657226562 18.15696716308594 251.5290832519531 C 18.38405609130859 253.2593078613281 20.49068450927734 252.9569702148438 24.49153900146484 257.7954711914062 C 28.49240112304688 262.6339111328125 27.84552001953125 267.2426147460938 34.16036987304688 270.883056640625 C 37.04338073730469 272.5450439453125 40.54437255859375 272.996826171875 43.49724578857422 272.996826171875 C 47.01227569580078 272.996826171875 49.75098419189453 272.3571166992188 49.75098419189453 272.3571166992188 C 49.75098419189453 272.3571166992188 49.51468658447266 275.3373413085938 49.56877136230469 278.6952514648438 C 49.60085296630859 280.6439208984375 49.98253631591797 282.9261779785156 49.75098419189453 284.1342468261719 C 49.56573486328125 285.1006774902344 49.13455200195312 285.9299926757812 48.25240325927734 286.4705200195312 C 47.80595397949219 286.7606201171875 47.19573974609375 286.8351745605469 46.68659210205078 286.8351745605469 C 46.14841461181641 286.8351745605469 45.72313690185547 286.7519226074219 45.72313690185547 286.7519226074219 C 19.80350494384766 278.8276977539062 0.9141998291015625 254.686279296875 0.9141998291015625 224.9982147216797 C 0.9141998291015625 189.0997009277344 29.54920196533203 160 66.00000762939453 160 Z" stroke="none" fill="#ff9e27"/>
  </g>
</svg>
