<svg id="Kaggle" xmlns="http://www.w3.org/2000/svg" width="129.001" height="129.001" viewBox="0 0 129.001 129.001">
  <g id="Exclusion_3" data-name="Exclusion 3" transform="translate(-20 -56)" fill="#ff9e27">
    <path d="M 84.50009918212891 184.7504119873047 C 75.82614898681641 184.7504119873047 67.41184997558594 183.0516510009766 59.49089813232422 179.7013397216797 C 55.68399810791016 178.0911560058594 52.01208114624023 176.0980834960938 48.5771484375 173.7774963378906 C 45.17494964599609 171.4789733886719 41.97566604614258 168.8392944335938 39.06814956665039 165.9317169189453 C 36.16059875488281 163.0241394042969 33.52093124389648 159.8248443603516 31.22248268127441 156.4226531982422 C 28.90205001831055 152.9879608154297 26.90901565551758 149.3160400390625 25.29874992370605 145.5089263916016 C 21.94851493835449 137.5880279541016 20.24979972839355 129.1738433837891 20.24979972839355 120.5001068115234 C 20.24979972839355 111.826171875 21.94851493835449 103.4118576049805 25.29874992370605 95.49090576171875 C 26.90901565551758 91.68380737304688 28.90205001831055 88.01188659667969 31.22248268127441 84.57715606689453 C 33.52099990844727 81.17490386962891 36.16064834594727 77.97562408447266 39.06814956665039 75.06815338134766 C 41.97561645507812 72.16065979003906 45.17490005493164 69.52100372314453 48.5771484375 67.22248840332031 C 52.01188278198242 64.90205383300781 55.68379974365234 62.90902328491211 59.49089813232422 61.29875564575195 C 67.41184997558594 57.94852447509766 75.82616424560547 56.24980545043945 84.50009918212891 56.24980545043945 C 93.17383575439453 56.24980545043945 101.5880126953125 57.94852447509766 109.508918762207 61.29875564575195 C 113.316032409668 62.90902328491211 116.9879455566406 64.90205383300781 120.4226455688477 67.22248840332031 C 123.8248291015625 69.52094268798828 127.0241317749023 72.16060638427734 129.9317169189453 75.06815338134766 C 132.8392944335938 77.97566986083984 135.4789886474609 81.17495727539062 137.7774810791016 84.57715606689453 C 140.0980224609375 88.01199340820312 142.0910797119141 91.68390655517578 143.7013092041016 95.49090576171875 C 147.0516510009766 103.4118576049805 148.7503967285156 111.826171875 148.7503967285156 120.5001068115234 C 148.7503967285156 129.1738433837891 147.0516510009766 137.5880279541016 143.7013092041016 145.5089263916016 C 142.0911254882812 149.3158264160156 140.0980682373047 152.9877471923828 137.7774810791016 156.4226531982422 C 135.4789276123047 159.8249053955078 132.8392333984375 163.0242004394531 129.9317169189453 165.9317169189453 C 127.024299621582 168.8391723632812 123.8249816894531 171.4788665771484 120.4226455688477 173.7774963378906 C 116.9878158569336 176.0980072021484 113.3159027099609 178.0910949707031 109.508918762207 179.7013397216797 C 101.5880126953125 183.0516510009766 93.17385101318359 184.7504119873047 84.50009918212891 184.7504119873047 Z M 95.23641967773438 159.6468353271484 C 95.27433013916016 159.6986846923828 95.55928039550781 160.0763244628906 96.20735168457031 160.6326904296875 C 96.91258239746094 161.2389373779297 97.98466491699219 161.2564392089844 98.10458374023438 161.2564392089844 L 107.6469192504883 161.2339172363281 C 107.6674499511719 161.2349700927734 107.7017059326172 161.2360382080078 107.7441635131836 161.2360382080078 C 108.1176834106445 161.2360382080078 109.3510665893555 161.1527099609375 109.5395355224609 160.0803680419922 C 109.7295227050781 158.9931182861328 108.9100723266602 158.0766754150391 108.8073883056641 157.9669799804688 L 86.76120758056641 130.8441467285156 L 108.1280288696289 109.9391098022461 C 108.1784973144531 109.8878936767578 109.2799835205078 108.753173828125 108.8384628295898 107.8669204711914 C 108.4685287475586 107.123405456543 107.697135925293 107.0656051635742 107.4695129394531 107.0656051635742 C 107.4351806640625 107.0656051635742 107.409309387207 107.0668106079102 107.3941650390625 107.0677642822266 L 96.88428497314453 107.0219039916992 L 96.86470031738281 107.0218200683594 L 96.84532928466797 107.024787902832 C 96.77321624755859 107.0358428955078 96.13043212890625 107.1386413574219 95.77391815185547 107.3418045043945 C 95.42853546142578 107.5380706787109 94.61357879638672 108.2515716552734 94.57906341552734 108.2818603515625 L 94.57233428955078 108.2877578735352 L 94.56603240966797 108.2941207885742 L 74.24980163574219 128.8633270263672 L 74.24980163574219 81.50040435791016 C 74.24980163574219 80.53529357910156 73.46501922607422 79.75010681152344 72.50039672851562 79.75010681152344 L 64.50029754638672 79.75010681152344 C 63.53518295288086 79.75010681152344 62.75 80.53529357910156 62.75 81.50040435791016 L 62.75 159.4998016357422 C 62.75 160.4649353027344 63.53518295288086 161.2501220703125 64.50029754638672 161.2501220703125 L 72.50039672851562 161.2501220703125 C 73.46501922607422 161.2501220703125 74.24980163574219 160.4649353027344 74.24980163574219 159.4998016357422 L 74.24980163574219 142.8639678955078 L 78.69484710693359 138.5612945556641 L 95.23641967773438 159.6468353271484 Z" stroke="none"/>
    <path d="M 84.50009918212891 184.5004119873047 C 93.14019775390625 184.5004119873047 101.521614074707 182.8083038330078 109.4115142822266 179.4710845947266 C 113.2036514282227 177.8671264648438 116.8612289428711 175.8818206787109 120.2826995849609 173.5703277587891 C 123.6718292236328 171.2806243896484 126.8587646484375 168.6511535644531 129.7549438476562 165.7549591064453 C 132.6512145996094 162.8586883544922 135.2806854248047 159.6717529296875 137.5703125 156.2826995849609 C 139.8818664550781 152.8611602783203 141.8671722412109 149.2035675048828 143.4710693359375 145.4115295410156 C 146.8082885742188 137.5216064453125 148.5003967285156 129.1402130126953 148.5003967285156 120.5001068115234 C 148.5003967285156 111.8598098754883 146.8082885742188 103.478271484375 143.4710693359375 95.58831024169922 C 141.8671112060547 91.79615783691406 139.8818359375 88.13857269287109 137.5703125 84.71710968017578 C 135.2807312011719 81.32810974121094 132.6512603759766 78.14118957519531 129.7549438476562 75.24492645263672 C 126.8586120605469 72.34862518310547 123.6716842651367 69.71919250488281 120.2826995849609 67.42965698242188 C 116.8613662719727 65.11825561523438 113.2037811279297 63.13299179077148 109.4115142822266 61.52900695800781 C 101.521598815918 58.19187164306641 93.14019775390625 56.49980545043945 84.50009918212891 56.49980545043945 C 75.85980224609375 56.49980545043945 67.47826385498047 58.19187164306641 59.58829879760742 61.52900695800781 C 55.79605102539062 63.13299179077148 52.13846588134766 65.11824035644531 48.71709823608398 67.42965698242188 C 45.32804870605469 69.71925354003906 42.14113235473633 72.34869384765625 39.24491500854492 75.24492645263672 C 36.34868240356445 78.14114379882812 33.7192497253418 81.32805633544922 31.42964935302734 84.71710968017578 C 29.11823272705078 88.13847351074219 27.13298225402832 91.79605865478516 25.52899932861328 95.58828735351562 C 22.19186592102051 103.478271484375 20.49979972839355 111.8598098754883 20.49979972839355 120.5001068115234 C 20.49979972839355 129.1402130126953 22.19186592102051 137.5216064453125 25.52899932861328 145.4115295410156 C 27.13298225402832 149.2037963867188 29.11824989318848 152.8613739013672 31.42964935302734 156.2826995849609 C 33.71918106079102 159.6716918945312 36.34861755371094 162.8586273193359 39.24491500854492 165.7549591064453 C 42.14118194580078 168.6512603759766 45.32809829711914 171.2807159423828 48.71709823608398 173.5703277587891 C 52.13864898681641 175.8818969726562 55.79624938964844 177.8671875 59.58829879760742 179.4710845947266 C 67.47824859619141 182.8083038330078 75.85977935791016 184.5004119873047 84.50009918212891 184.5004119873047 M 95.037841796875 159.7987365722656 L 78.66938018798828 138.9338836669922 L 74.49980163574219 142.9698944091797 L 74.49980163574219 159.4998016357422 C 74.49980163574219 160.602783203125 73.60286712646484 161.5001220703125 72.50039672851562 161.5001220703125 L 64.50029754638672 161.5001220703125 C 63.39733123779297 161.5001220703125 62.5 160.602783203125 62.5 159.4998016357422 L 62.5 81.50040435791016 C 62.5 80.39743804931641 63.39733123779297 79.50010681152344 64.50029754638672 79.50010681152344 L 72.50039672851562 79.50010681152344 C 73.60286712646484 79.50010681152344 74.49980163574219 80.39743804931641 74.49980163574219 81.50040435791016 L 74.49980163574219 128.2544555664062 L 94.38816833496094 108.1184387207031 L 94.40074920654297 108.1057052612305 L 94.41421508789062 108.0938873291016 C 94.50271606445312 108.0162734985352 95.28931427001953 107.3296432495117 95.650146484375 107.1245880126953 C 96.03751373291016 106.9038391113281 96.68216705322266 106.796875 96.80746459960938 106.7776718139648 L 96.84619903564453 106.7717437744141 L 96.88538360595703 106.7719039916992 L 107.3873901367188 106.8177337646484 C 107.4071350097656 106.8166427612305 107.4350509643555 106.8156051635742 107.4695129394531 106.8156051635742 C 107.7334518432617 106.8156051635742 108.6283645629883 106.8834075927734 109.0622329711914 107.7554397583008 C 109.573616027832 108.7819213867188 108.4404830932617 109.9780883789062 108.3095855712891 110.1111068725586 L 108.306266784668 110.1144866943359 L 108.302864074707 110.117805480957 L 87.09902191162109 130.8633880615234 L 108.9947738647461 157.8011474609375 C 109.1420135498047 157.9581451416016 109.9946746826172 158.9280853271484 109.7857513427734 160.1236572265625 C 109.6092147827148 161.1281433105469 108.6153793334961 161.4860382080078 107.7441635131836 161.4860382080078 C 107.7072677612305 161.4860382080078 107.6701049804688 161.4852447509766 107.6413879394531 161.4839324951172 L 98.10458374023438 161.5064392089844 C 97.97516632080078 161.5064392089844 96.81791687011719 161.4872436523438 96.04450225830078 160.8223724365234 C 95.39670562744141 160.2662200927734 95.09337615966797 159.8736267089844 95.037841796875 159.7987365722656 M 84.50009918212891 185.0004119873047 C 75.79253387451172 185.0004119873047 67.34546661376953 183.2950286865234 59.39351654052734 179.9315948486328 C 55.57163238525391 178.3150787353516 51.88539886474609 176.314208984375 48.43719863891602 173.9846343994141 C 45.02186584472656 171.6772613525391 41.81016540527344 169.02734375 38.89136505126953 166.1085052490234 C 35.97254943847656 163.1896514892578 33.32266616821289 159.9779357910156 31.01533317565918 156.5626068115234 C 28.68584823608398 153.114501953125 26.68504905700684 149.4282684326172 25.0684986114502 145.6063079833984 C 21.70514869689941 137.6544036865234 19.99979972839355 129.2074584960938 19.99979972839355 120.5001068115234 C 19.99979972839355 111.7925415039062 21.70514869689941 103.3454742431641 25.0684986114502 95.39352416992188 C 26.68504905700684 91.57155609130859 28.68584823608398 87.88532257080078 31.01533317565918 84.43721008300781 C 33.32271575927734 81.02182006835938 35.97259902954102 77.81012725830078 38.89136505126953 74.89137268066406 C 41.81011581420898 71.97261047363281 45.02181625366211 69.32272338867188 48.43719863891602 67.01534271240234 C 51.88531494140625 64.68585968017578 55.57154846191406 62.68505859375 59.39351654052734 61.06850814819336 C 67.34546661376953 57.70515823364258 75.79253387451172 55.99980545043945 84.50009918212891 55.99980545043945 C 93.20745086669922 55.99980545043945 101.6543960571289 57.70515823364258 109.6063003540039 61.06850814819336 C 113.4282684326172 62.68505859375 117.114501953125 64.68585968017578 120.5625991821289 67.01534271240234 C 123.9779357910156 69.32266998291016 127.1896514892578 71.97255706787109 130.1085052490234 74.89137268066406 C 133.0274047851562 77.81022644042969 135.6772918701172 81.02192687988281 137.9846343994141 84.43721008300781 C 140.314208984375 87.88542175292969 142.3150482177734 91.5716552734375 143.9315643310547 95.39352416992188 C 147.2949981689453 103.345458984375 149.0003967285156 111.7925415039062 149.0003967285156 120.5001068115234 C 149.0003967285156 129.2074737548828 147.2949981689453 137.6544189453125 143.9315643310547 145.6063079833984 C 142.3150482177734 149.4281768798828 140.3141937255859 153.1143951416016 137.9846343994141 156.5626068115234 C 135.6772003173828 159.9780120849609 133.0272979736328 163.1897125244141 130.1085052490234 166.1085052490234 C 127.189697265625 169.0273284912109 123.9779815673828 171.6772003173828 120.5625991821289 173.9846343994141 C 117.1144180297852 176.3141937255859 113.4281845092773 178.3150329589844 109.6063003540039 179.9315948486328 C 101.6543960571289 183.2950286865234 93.20745086669922 185.0004119873047 84.50009918212891 185.0004119873047 Z M 78.72029876708984 138.188720703125 L 78.72098541259766 138.1895904541016 L 95.43599700927734 159.4962005615234 C 95.43868255615234 159.4999694824219 95.70856475830078 159.8749847412109 96.37020111083984 160.4430084228516 C 97.01818084716797 161.0000457763672 98.06053161621094 161.0064392089844 98.10458374023438 161.0064392089844 L 107.6534957885742 160.9839019775391 C 107.6540298461914 160.9839630126953 107.687385559082 160.9860382080078 107.7441635131836 160.9860382080078 C 108.0684509277344 160.9860382080078 109.1385498046875 160.9176025390625 109.2932968139648 160.037109375 C 109.4728851318359 159.0094604492188 108.6277694702148 158.1404724121094 108.6192016601562 158.1318054199219 L 86.42340087890625 130.8249053955078 L 107.9532012939453 109.7604064941406 C 107.9634628295898 109.7499771118164 108.9775695800781 108.7067718505859 108.6147003173828 107.9784088134766 C 108.3087158203125 107.3634033203125 107.6607971191406 107.3156051635742 107.4695129394531 107.3156051635742 C 107.4269790649414 107.3156051635742 107.4024353027344 107.3178100585938 107.4023971557617 107.3178100585938 L 96.88320159912109 107.2719039916992 C 96.87678527832031 107.2728881835938 96.22348022460938 107.3733596801758 95.89769744873047 107.5590057373047 C 95.57461547851562 107.7426071166992 94.75216674804688 108.4625549316406 94.743896484375 108.4698104858398 L 73.99980163574219 129.4722137451172 L 73.99980163574219 81.50040435791016 C 73.99980163574219 80.67314147949219 73.32716369628906 80.00010681152344 72.50039672851562 80.00010681152344 L 64.50029754638672 80.00010681152344 C 63.67303085327148 80.00010681152344 63 80.67314147949219 63 81.50040435791016 L 63 159.4998016357422 C 63 160.3270874023438 63.67303085327148 161.0001220703125 64.50029754638672 161.0001220703125 L 72.50039672851562 161.0001220703125 C 73.32716369628906 161.0001220703125 73.99980163574219 160.3270874023438 73.99980163574219 159.4998016357422 L 73.99980163574219 142.7580108642578 L 78.71949768066406 138.1894836425781 L 78.72029876708984 138.188720703125 Z" stroke="none" fill="#ff9e27"/>
  </g>
</svg>
