<svg id="Linkedin" xmlns="http://www.w3.org/2000/svg" width="129" height="129" viewBox="0 0 129 129">
  <g id="Exclusion_1" data-name="Exclusion 1" transform="translate(-10 103)" fill="#ff9e27">
    <path d="M 74.50019836425781 25.75010108947754 C 65.82626342773438 25.75010108947754 57.41194915771484 24.0513858795166 49.49099731445312 20.70115089416504 C 45.68389892578125 19.09088516235352 42.01198196411133 17.09785270690918 38.57724761962891 14.77741813659668 C 35.17499923706055 12.47890186309814 31.97571563720703 9.839251518249512 29.0682487487793 6.931751728057861 C 26.16074752807617 4.024285316467285 23.52109909057617 0.8250017762184143 21.22258186340332 -2.577248334884644 C 18.90214729309082 -6.01198148727417 16.90911483764648 -9.683897972106934 15.29884815216064 -13.49099826812744 C 11.94861507415771 -21.41194915771484 10.24989795684814 -29.82626533508301 10.24989795684814 -38.50019836425781 C 10.24989795684814 -47.17393112182617 11.94861507415771 -55.58806610107422 15.29884815216064 -63.50886535644531 C 16.90911483764648 -67.31591796875 18.90214729309082 -70.98778533935547 21.22258186340332 -74.42246246337891 C 23.52109909057617 -77.82466125488281 26.16074752807617 -81.02393341064453 29.0682487487793 -83.93136596679688 C 31.97574806213379 -86.8388671875 35.17502975463867 -89.47850036621094 38.57724761962891 -91.77696228027344 C 42.01198196411133 -94.09738159179688 45.68389892578125 -96.09040069580078 49.49099731445312 -97.70064544677734 C 57.41194915771484 -101.0508804321289 65.82626342773438 -102.7495956420898 74.50019836425781 -102.7495956420898 C 83.17391204833984 -102.7495956420898 91.58805084228516 -101.0508804321289 99.50886535644531 -97.70064544677734 C 103.3158798217773 -96.09041595458984 106.9877471923828 -94.09739685058594 110.4224624633789 -91.77696228027344 C 113.8246841430664 -89.47844696044922 117.0239334106445 -86.83881378173828 119.9313659667969 -83.93136596679688 C 122.8388137817383 -81.02393341064453 125.4784469604492 -77.82468414306641 127.7769622802734 -74.42246246337891 C 130.0973968505859 -70.98774719238281 132.0904083251953 -67.31587982177734 133.7006530761719 -63.50886535644531 C 137.0508880615234 -55.58804702758789 138.7496032714844 -47.17391586303711 138.7496032714844 -38.50019836425781 C 138.7496032714844 -29.82626533508301 137.0508880615234 -21.41194915771484 133.7006530761719 -13.49099826812744 C 132.0903930664062 -9.683897972106934 130.0973815917969 -6.01198148727417 127.7769622802734 -2.577248334884644 C 125.4785003662109 0.8249684572219849 122.8388671875 4.024251937866211 119.9313659667969 6.931751728057861 C 117.0239334106445 9.839251518249512 113.8246612548828 12.47890186309814 110.4224624633789 14.77741813659668 C 106.9877853393555 17.09785270690918 103.31591796875 19.09088516235352 99.50886535644531 20.70115089416504 C 91.58806610107422 24.0513858795166 83.17393493652344 25.75010108947754 74.50019836425781 25.75010108947754 Z M 47.99969863891602 -76.24959564208984 C 42.89923095703125 -76.24959564208984 38.74969863891602 -72.32454681396484 38.74969863891602 -67.5 C 38.74969863891602 -62.67544937133789 42.89923095703125 -58.75039672851562 47.99969863891602 -58.75039672851562 C 53.10016632080078 -58.75039672851562 57.24969863891602 -62.67544937133789 57.24969863891602 -67.5 C 57.24969863891602 -70.10836791992188 56.00151443481445 -72.66252899169922 53.99226379394531 -74.16577911376953 C 52.16254806518555 -75.54826354980469 50.14604949951172 -76.24959564208984 47.99969863891602 -76.24959564208984 Z" stroke="none"/>
    <path d="M 74.50019836425781 25.50010108947754 C 83.14028167724609 25.50010108947754 91.52164459228516 23.80803489685059 99.41146850585938 20.47090148925781 C 103.2036666870117 18.86691856384277 106.861198425293 16.88166809082031 110.2825164794922 14.57025146484375 C 113.6715316772461 12.28065204620361 116.8583984375 9.651218414306641 119.7546005249023 6.754985332489014 C 122.6508331298828 3.858735084533691 125.2802505493164 0.6718184351921082 127.5698013305664 -2.717198133468628 C 129.8811950683594 -6.138548374176025 131.8664245605469 -9.796148300170898 133.4703979492188 -13.58838176727295 C 136.8075256347656 -21.47836494445801 138.4996032714844 -29.85989761352539 138.4996032714844 -38.50019836425781 C 138.4996032714844 -47.14026641845703 136.8075256347656 -55.52163314819336 133.4703979492188 -63.41146469116211 C 131.866455078125 -67.20362854003906 129.8812103271484 -70.86116790771484 127.5698013305664 -74.28251647949219 C 125.2801971435547 -77.67153167724609 122.6507797241211 -80.85841369628906 119.7546005249023 -83.75460052490234 C 116.8584136962891 -86.65077972412109 113.6715316772461 -89.28019714355469 110.2825164794922 -91.56980133056641 C 106.8611679077148 -93.88121795654297 103.2036285400391 -95.86644744873047 99.41146850585938 -97.47039794921875 C 91.52162933349609 -100.8075332641602 83.14026641845703 -102.4995956420898 74.50019836425781 -102.4995956420898 C 65.85990142822266 -102.4995956420898 57.47836303710938 -100.8075332641602 49.58838272094727 -97.47039794921875 C 45.79614639282227 -95.86643218994141 42.1385498046875 -93.88119506835938 38.71719741821289 -91.56980133056641 C 35.32818222045898 -89.28025054931641 32.14126586914062 -86.65083312988281 29.24501419067383 -83.75460052490234 C 26.34878158569336 -80.8583984375 23.7193489074707 -77.67153167724609 21.42974853515625 -74.28251647949219 C 19.11833190917969 -70.86119842529297 17.13308143615723 -67.20366668701172 15.52909851074219 -63.41146469116211 C 12.19196510314941 -55.52164840698242 10.49989795684814 -47.14028167724609 10.49989795684814 -38.50019836425781 C 10.49989795684814 -29.85989761352539 12.19196510314941 -21.47836494445801 15.52909851074219 -13.58839797973633 C 17.13308143615723 -9.796148300170898 19.11833190917969 -6.138565063476562 21.42974853515625 -2.717198133468628 C 23.7193489074707 0.6718517541885376 26.34878158569336 3.858768463134766 29.24501419067383 6.754985332489014 C 32.14123153686523 9.651218414306641 35.32814788818359 12.28065204620361 38.71719741821289 14.57025146484375 C 42.13856506347656 16.88166809082031 45.79614639282227 18.86691856384277 49.58838272094727 20.47090148925781 C 57.47836303710938 23.80803489685059 65.85990142822266 25.50010108947754 74.50019836425781 25.50010108947754 M 47.99969863891602 -76.49959564208984 C 50.20166397094727 -76.49959564208984 52.26888275146484 -75.78126525878906 54.14203262329102 -74.36595153808594 C 56.21311569213867 -72.81645202636719 57.49969863891602 -70.18558502197266 57.49969863891602 -67.5 C 57.49969863891602 -62.53759765625 53.23801422119141 -58.50039672851562 47.99969863891602 -58.50039672851562 C 42.76138305664062 -58.50039672851562 38.49969863891602 -62.53759765625 38.49969863891602 -67.5 C 38.49969863891602 -72.46239471435547 42.76138305664062 -76.49959564208984 47.99969863891602 -76.49959564208984 M 74.50019836425781 26.00010108947754 C 65.79263305664062 26.00010108947754 57.34556579589844 24.29475212097168 49.39361572265625 20.9314022064209 C 45.57164764404297 19.31485176086426 41.88541412353516 17.31405258178711 38.43729782104492 14.98456859588623 C 35.02191543579102 12.67718505859375 31.81021499633789 10.02730178833008 28.89146423339844 7.108535289764404 C 25.97269821166992 4.189785003662109 23.32281494140625 0.9780851006507874 21.01543235778809 -2.43729829788208 C 18.68594741821289 -5.885415077209473 16.68514823913574 -9.571648597717285 15.0685977935791 -13.39361476898193 C 11.70524787902832 -21.34556579589844 9.999897956848145 -29.79263114929199 9.999897956848145 -38.50019836425781 C 9.999897956848145 -47.20755004882812 11.70524787902832 -55.65444946289062 15.0685977935791 -63.60624694824219 C 16.68514823913574 -67.42816162109375 18.68594741821289 -71.11434936523438 21.01543235778809 -74.56241607666016 C 23.32284736633301 -77.97781372070312 25.97273063659668 -81.18946838378906 28.89146423339844 -84.10814666748047 C 31.81023216247559 -87.02690124511719 35.02193069458008 -89.67676544189453 38.43729782104492 -91.98411560058594 C 41.88541412353516 -94.31358337402344 45.57164764404297 -96.31436157226562 49.39361572265625 -97.93090057373047 C 57.34556579589844 -101.2942504882812 65.79263305664062 -102.9995956420898 74.50019836425781 -102.9995956420898 C 83.20753479003906 -102.9995956420898 91.65443420410156 -101.2942504882812 99.60624694824219 -97.93090057373047 C 103.4281311035156 -96.31438446044922 107.1143112182617 -94.3135986328125 110.5624160766602 -91.98411560058594 C 113.9777297973633 -89.67675018310547 117.1893997192383 -87.02690124511719 120.1081466674805 -84.10814666748047 C 123.0269012451172 -81.18939971923828 125.6767501831055 -77.97772979736328 127.9841156005859 -74.56241607666016 C 130.3135986328125 -71.11431121826172 132.3143768310547 -67.42813110351562 133.9308929443359 -63.60624694824219 C 137.2942504882812 -55.6544303894043 138.9996032714844 -47.2075309753418 138.9996032714844 -38.50019836425781 C 138.9996032714844 -29.79263114929199 137.2942504882812 -21.34556579589844 133.9308929443359 -13.39361476898193 C 132.3143615722656 -9.571648597717285 130.3135833740234 -5.885415077209473 127.9841156005859 -2.43729829788208 C 125.6767654418945 0.9780684113502502 123.0269012451172 4.189768314361572 120.1081466674805 7.108535289764404 C 117.1894683837891 10.027268409729 113.9778137207031 12.67715167999268 110.5624160766602 14.98456859588623 C 107.1143493652344 17.31405258178711 103.4281616210938 19.31485176086426 99.60624694824219 20.9314022064209 C 91.65444946289062 24.29475212097168 83.20755004882812 26.00010108947754 74.50019836425781 26.00010108947754 Z M 47.99969863891602 -75.99959564208984 C 43.03708267211914 -75.99959564208984 38.99969863891602 -72.18669891357422 38.99969863891602 -67.5 C 38.99969863891602 -62.81329727172852 43.03708267211914 -59.00039672851562 47.99969863891602 -59.00039672851562 C 52.96231460571289 -59.00039672851562 56.99969863891602 -62.81329727172852 56.99969863891602 -67.5 C 56.99969863891602 -70.03115081787109 55.78993225097656 -72.50861358642578 53.84249877929688 -73.96559906005859 C 52.05621337890625 -75.31526184082031 50.09041595458984 -75.99959564208984 47.99969863891602 -75.99959564208984 Z" stroke="none" fill="#ff9e27"/>
  </g>
  <g id="Rectangle_1" data-name="Rectangle 1" transform="translate(30 50)" fill="#fff" stroke="#ff9e27" stroke-width="0.5">
    <rect width="16" height="48" stroke="none"/>
    <rect x="0.25" y="0.25" width="15.5" height="47.5" fill="none"/>
  </g>
  <g id="Tracé_5" data-name="Tracé 5" transform="translate(54 50)" fill="#fff" stroke-linejoin="round">
    <path d="M 48.33410263061523 47.75 L 32.69485473632812 47.75 L 32.69485473632812 18.75234794616699 C 32.70266723632812 18.56925010681152 32.77878189086914 15.93631172180176 30.8649730682373 13.9033088684082 C 29.47689247131348 12.42878913879395 27.41118240356445 11.66488838195801 24.7252140045166 11.63284873962402 C 24.6677131652832 11.63215827941895 24.6096134185791 11.6318187713623 24.55288314819336 11.6318187713623 C 22.70866394042969 11.6318187713623 21.11736297607422 11.99347877502441 19.82317352294922 12.70676898956299 C 18.77548408508301 13.28420829772949 17.92056274414062 14.09088897705078 17.28217315673828 15.10438823699951 C 16.1505241394043 16.9009895324707 16.09970283508301 18.72898864746094 16.09970283508301 18.74663925170898 L 16.09970283508301 47.75 L 0.2500032186508179 47.75 L 0.2500032186508179 0.2483171224594116 L 16.09970283508301 0.141622930765152 L 16.09970283508301 6.565918922424316 L 16.58646392822266 6.646198749542236 C 16.59011268615723 6.635478496551514 16.9681339263916 5.542388916015625 17.89209365844727 4.253298759460449 C 18.73991394042969 3.070438623428345 20.23598289489746 1.47377872467041 22.54851341247559 0.5846887230873108 C 25.25128364562988 -0.4544412791728973 27.65628242492676 -0.9384213089942932 30.11721229553223 -0.9384213089942932 C 31.87186241149902 -0.9384213089942932 33.69318389892578 -0.6880512833595276 35.68525314331055 -0.1730012893676758 C 38.05724334716797 0.4402787089347839 39.74224472045898 1.192318677902222 41.14873504638672 2.265438795089722 C 42.46734237670898 3.271508693695068 43.62847137451172 4.618988513946533 45.03125381469727 6.771078586578369 C 47.53177642822266 10.6072998046875 48.29641723632812 17.10333061218262 48.33410263061523 17.43665885925293 L 48.33410263061523 47.75 Z" stroke="none"/>
    <path d="M 30.11722373962402 -0.6884231567382812 C 27.68775367736816 -0.6883430480957031 25.31125259399414 -0.2096595764160156 22.63823318481445 0.8180274963378906 C 20.39010238647461 1.682357788085938 18.93238258361816 3.234779357910156 18.10537338256836 4.3848876953125 C 17.19869232177734 5.645809173583984 16.8266429901123 6.716499328613281 16.82322311401367 6.726478576660156 C 16.7535457611084 6.931972503662109 16.56107711791992 7.065967559814453 16.35002899169922 7.065967559814453 C 16.32303237915039 7.065967559814453 16.29572677612305 7.063774108886719 16.26834487915039 7.059257507324219 C 16.02686309814453 7.019428253173828 15.84970474243164 6.810657501220703 15.84970474243164 6.56591796875 L 15.84970474243164 0.3933181762695312 L 0.5000038146972656 0.4966468811035156 L 0.5000038146972656 47.5 L 15.84970474243164 47.5 L 15.84970474243164 18.74663925170898 C 15.84970474243164 18.72826957702637 15.8829231262207 16.85674858093262 17.07062339782715 14.97114944458008 C 18.93925285339355 12.00453948974609 22.1708927154541 11.38181686401367 24.55286407470703 11.38181686401367 C 24.61056327819824 11.38181686401367 24.66967391967773 11.38216781616211 24.72819328308105 11.38286972045898 C 27.48465347290039 11.41574859619141 29.6106128692627 12.20610046386719 31.0470027923584 13.73194885253906 C 33.01015472412109 15.81736373901367 32.95416641235352 18.51458549499512 32.94485473632812 18.75708770751953 L 32.94485473632812 47.5 L 48.08410263061523 47.5 L 48.08410263061523 17.45080184936523 C 48.03185272216797 16.99612808227539 47.26433563232422 10.65482330322266 44.82182312011719 6.907600402832031 C 43.43553161621094 4.780799865722656 42.29169464111328 3.451927185058594 40.9970817565918 2.464179992675781 C 39.61837387084961 1.412258148193359 37.96084213256836 0.6735687255859375 35.62267303466797 0.06903839111328125 C 33.65109252929688 -0.4407119750976562 31.85024261474609 -0.6884803771972656 30.11722373962402 -0.6884231567382812 M 30.11720275878906 -1.188419342041016 C 31.92115211486816 -1.1884765625 33.76078033447266 -0.9287910461425781 35.74783325195312 -0.4150428771972656 C 40.51373291015625 0.8171768188476562 42.62442398071289 2.620769500732422 45.24069213867188 6.634567260742188 C 47.85696411132812 10.64835739135742 48.58410263061523 17.42281913757324 48.58410263061523 17.42281913757324 L 48.58410263061523 48 L 32.44485473632812 48 L 32.44485473632812 18.74663925170898 C 32.44485473632812 18.74663925170898 32.77301406860352 11.97887802124023 24.72223281860352 11.88282775878906 C 24.66572380065918 11.88215255737305 24.60861587524414 11.88181304931641 24.55286598205566 11.88181304931641 C 16.66596221923828 11.88181304931641 16.34970474243164 18.54239273071289 16.34970474243164 18.74663925170898 C 16.34970474243164 30.74663925170898 16.34970474243164 48 16.34970474243164 48 L 3.814697265625e-06 48 L 3.814697265625e-06 0 L 16.34970474243164 -0.1100616455078125 L 16.34970474243164 6.56591796875 C 16.34970474243164 6.56591796875 17.85697364807129 2.120590209960938 22.45880317687988 0.3513298034667969 C 25.14198684692383 -0.680267333984375 27.59441757202148 -1.188339233398438 30.11720275878906 -1.188419342041016 Z" stroke="none" fill="#ff9e27"/>
  </g>
</svg>
