<svg xmlns="http://www.w3.org/2000/svg" width="263.765" height="64.965" viewBox="0 0 263.765 64.965">
  <g id="Groupe_1" data-name="Groupe 1" transform="translate(-70.39 -65.945)">
    <path id="Tracé_2" data-name="Tracé 2" d="M6.39,67V17.3H27.335q7.881,0,12.816,4.686a15.819,15.819,0,0,1,4.934,12,15.819,15.819,0,0,1-4.934,12Q35.216,50.67,27.335,50.67H17.04V67ZM17.04,40.73h9.94a7.106,7.106,0,0,0,5.147-1.881,6.454,6.454,0,0,0,1.952-4.864,6.454,6.454,0,0,0-1.952-4.864A7.106,7.106,0,0,0,26.98,27.24H17.04ZM51.475,67V32.21H61.06v4.97h.355a16.56,16.56,0,0,1,2.627-2.84A11.666,11.666,0,0,1,71.71,31.5h.71V41.795l-.781-.142a22.524,22.524,0,0,0-2.414-.213,7.6,7.6,0,0,0-5.857,2.521A9.55,9.55,0,0,0,61.06,50.67V67ZM87.756,56.208a8.913,8.913,0,0,0,12.638,0,9.086,9.086,0,0,0,2.556-6.6,9.086,9.086,0,0,0-2.556-6.6,8.913,8.913,0,0,0-12.638,0A9.086,9.086,0,0,0,85.2,49.6,9.086,9.086,0,0,0,87.756,56.208Zm-6.745,6.177a17.832,17.832,0,0,1,0-25.56,18.688,18.688,0,0,1,26.128,0,17.832,17.832,0,0,1,0,25.56,18.688,18.688,0,0,1-26.128,0Zm30.1,18.46V71.97a5.87,5.87,0,0,0,1.136.355,10.314,10.314,0,0,0,2.769.355,4.421,4.421,0,0,0,3.372-1.313,5.109,5.109,0,0,0,1.243-3.657V32.21h9.585V69.13q0,6.106-3.16,9.443A11.22,11.22,0,0,1,117.5,81.91a18.808,18.808,0,0,1-4.544-.5q-.284-.071-.923-.249A5.6,5.6,0,0,1,111.115,80.845Zm13.348-63.9a5.27,5.27,0,0,1,3.869,1.6l.118.168C129.385,19.6,122.95,16.945,124.463,16.945Zm40.257,38.34,4.97,6.745a18.328,18.328,0,0,1-3.834,2.84,22.435,22.435,0,0,1-11.076,2.84,17.914,17.914,0,0,1-13.064-5.325,17.915,17.915,0,0,1-.071-25.56,17.43,17.43,0,0,1,12.78-5.325,17.454,17.454,0,0,1,17.4,17.4q0,.71-.213,3.053l-.142,1.207h-25.2a8.569,8.569,0,0,0,3.16,4.331,9.975,9.975,0,0,0,6.07,1.7,12.235,12.235,0,0,0,6.887-1.917A11.013,11.013,0,0,0,164.72,55.285Zm-18.46-9.23h15.62a9.421,9.421,0,0,0-2.911-4.3,7.768,7.768,0,0,0-9.8,0A9.421,9.421,0,0,0,146.26,46.055Zm57.51,8.52L209.8,60.61a15.734,15.734,0,0,1-3.55,3.55,18.505,18.505,0,0,1-11,3.55,17.914,17.914,0,0,1-13.064-5.325,17.832,17.832,0,0,1,0-25.56A17.914,17.914,0,0,1,195.25,31.5a18.505,18.505,0,0,1,11,3.55,15.734,15.734,0,0,1,3.55,3.55l-6.035,6.035A12.314,12.314,0,0,0,201.5,42.5a10.59,10.59,0,0,0-6.248-2.13A8.466,8.466,0,0,0,188.931,43a9.086,9.086,0,0,0-2.556,6.6,9.086,9.086,0,0,0,2.556,6.6,8.466,8.466,0,0,0,6.319,2.627,10.59,10.59,0,0,0,6.248-2.13A12.314,12.314,0,0,0,203.77,54.575Zm14.91.355V41.795h-6.035V32.92h3.2q3.9,0,3.9-4.26V22.27h8.52V32.92h7.81v8.875h-7.81V53.51a5.109,5.109,0,0,0,1.243,3.656,4.421,4.421,0,0,0,3.372,1.313,10.314,10.314,0,0,0,2.769-.355,5.869,5.869,0,0,0,1.136-.355v8.875a5.6,5.6,0,0,1-.923.32q-.639.177-.923.248a18.808,18.808,0,0,1-4.544.5,11.22,11.22,0,0,1-8.555-3.337Q218.68,61.036,218.68,54.93Zm22.01,6.39,5.68-6.035a9.951,9.951,0,0,0,2.485,1.988A11.982,11.982,0,0,0,255.6,59.19q4.26,0,4.26-2.485,0-1.207-2.769-2.343t-6.106-2.13a15.075,15.075,0,0,1-6.106-3.621,8.557,8.557,0,0,1-2.769-6.461,9.474,9.474,0,0,1,3.727-7.562q3.728-3.089,10.118-3.089a19.376,19.376,0,0,1,10.082,2.7,16.4,16.4,0,0,1,3.408,2.627l-5.68,6.035a13.176,13.176,0,0,0-2.059-1.42,11.387,11.387,0,0,0-5.751-1.42,4.555,4.555,0,0,0-2.663.639,1.827,1.827,0,0,0-.887,1.491q0,1.207,2.769,2.343t6.106,2.13a15.075,15.075,0,0,1,6.106,3.621,8.557,8.557,0,0,1,2.769,6.461,9.777,9.777,0,0,1-3.834,7.845q-3.834,3.159-10.721,3.16a20.052,20.052,0,0,1-11.076-3.195A16.8,16.8,0,0,1,240.69,61.32Z" transform="translate(64 49)" fill="#49a4bc"/>
    <path id="Projects" d="M120.487-40.967a5.285,5.285,0,0,1-1.562-3.763,5.056,5.056,0,0,1,1.633-3.728,5.388,5.388,0,0,1,3.9-1.6,5.27,5.27,0,0,1,3.869,1.6,5.109,5.109,0,0,1,1.6,3.728A5.056,5.056,0,0,1,128.3-41a5.388,5.388,0,0,1-3.9,1.6A5.452,5.452,0,0,1,120.487-40.967Z" transform="translate(64 116)" fill="#ff9e27"/>
    <path id="Tracé_1" data-name="Tracé 1" d="M6.39,67V17.3H27.335q7.881,0,12.816,4.686a15.819,15.819,0,0,1,4.934,12,15.819,15.819,0,0,1-4.934,12Q35.216,50.67,27.335,50.67H17.04V67ZM17.04,40.73h9.94a7.106,7.106,0,0,0,5.147-1.881,6.454,6.454,0,0,0,1.952-4.864,6.454,6.454,0,0,0-1.952-4.864A7.106,7.106,0,0,0,26.98,27.24H17.04ZM51.475,67V32.21H61.06v4.97h.355a16.56,16.56,0,0,1,2.627-2.84A11.666,11.666,0,0,1,71.71,31.5h.71V41.795l-.781-.142a22.524,22.524,0,0,0-2.414-.213,7.6,7.6,0,0,0-5.857,2.521A9.55,9.55,0,0,0,61.06,50.67V67ZM87.756,56.208a8.913,8.913,0,0,0,12.638,0,9.086,9.086,0,0,0,2.556-6.6,9.086,9.086,0,0,0-2.556-6.6,8.913,8.913,0,0,0-12.638,0A9.086,9.086,0,0,0,85.2,49.6,9.086,9.086,0,0,0,87.756,56.208Zm-6.745,6.177a17.832,17.832,0,0,1,0-25.56,18.688,18.688,0,0,1,26.128,0,17.832,17.832,0,0,1,0,25.56,18.688,18.688,0,0,1-26.128,0Zm30.1,18.46V71.97a5.87,5.87,0,0,0,1.136.355,10.314,10.314,0,0,0,2.769.355,4.421,4.421,0,0,0,3.372-1.313,5.109,5.109,0,0,0,1.243-3.657V32.21h9.585V69.13q0,6.106-3.16,9.443A11.22,11.22,0,0,1,117.5,81.91a18.808,18.808,0,0,1-4.544-.5q-.284-.071-.923-.249A5.6,5.6,0,0,1,111.115,80.845Zm53.605-25.56,4.97,6.745a18.328,18.328,0,0,1-3.834,2.84,22.435,22.435,0,0,1-11.076,2.84,17.914,17.914,0,0,1-13.064-5.325,17.915,17.915,0,0,1-.071-25.56,17.43,17.43,0,0,1,12.78-5.325,17.454,17.454,0,0,1,17.4,17.4q0,.71-.213,3.053l-.142,1.207h-25.2a8.569,8.569,0,0,0,3.16,4.331,9.975,9.975,0,0,0,6.07,1.7,12.235,12.235,0,0,0,6.887-1.917A11.013,11.013,0,0,0,164.72,55.285Zm-18.46-9.23h15.62a9.421,9.421,0,0,0-2.911-4.3,7.768,7.768,0,0,0-9.8,0A9.421,9.421,0,0,0,146.26,46.055Zm57.51,8.52L209.8,60.61a15.734,15.734,0,0,1-3.55,3.55,18.505,18.505,0,0,1-11,3.55,17.914,17.914,0,0,1-13.064-5.325,17.832,17.832,0,0,1,0-25.56A17.914,17.914,0,0,1,195.25,31.5a18.505,18.505,0,0,1,11,3.55,15.734,15.734,0,0,1,3.55,3.55l-6.035,6.035A12.314,12.314,0,0,0,201.5,42.5a10.59,10.59,0,0,0-6.248-2.13A8.466,8.466,0,0,0,188.931,43a9.086,9.086,0,0,0-2.556,6.6,9.086,9.086,0,0,0,2.556,6.6,8.466,8.466,0,0,0,6.319,2.627,10.59,10.59,0,0,0,6.248-2.13A12.314,12.314,0,0,0,203.77,54.575Zm14.91.355V41.795h-6.035V32.92h3.2q3.9,0,3.9-4.26V22.27h8.52V32.92h7.81v8.875h-7.81V53.51a5.109,5.109,0,0,0,1.243,3.656,4.421,4.421,0,0,0,3.372,1.313,10.314,10.314,0,0,0,2.769-.355,5.869,5.869,0,0,0,1.136-.355v8.875a5.6,5.6,0,0,1-.923.32q-.639.177-.923.248a18.808,18.808,0,0,1-4.544.5,11.22,11.22,0,0,1-8.555-3.337Q218.68,61.036,218.68,54.93Zm22.01,6.39,5.68-6.035a9.951,9.951,0,0,0,2.485,1.988A11.982,11.982,0,0,0,255.6,59.19q4.26,0,4.26-2.485,0-1.207-2.769-2.343t-6.106-2.13a15.075,15.075,0,0,1-6.106-3.621,8.557,8.557,0,0,1-2.769-6.461,9.474,9.474,0,0,1,3.727-7.562q3.728-3.089,10.118-3.089a19.376,19.376,0,0,1,10.082,2.7,16.4,16.4,0,0,1,3.408,2.627l-5.68,6.035a13.176,13.176,0,0,0-2.059-1.42,11.387,11.387,0,0,0-5.751-1.42,4.555,4.555,0,0,0-2.663.639,1.827,1.827,0,0,0-.887,1.491q0,1.207,2.769,2.343t6.106,2.13a15.075,15.075,0,0,1,6.106,3.621,8.557,8.557,0,0,1,2.769,6.461,9.777,9.777,0,0,1-3.834,7.845q-3.834,3.159-10.721,3.16a20.052,20.052,0,0,1-11.076-3.195A16.8,16.8,0,0,1,240.69,61.32Z" transform="translate(64 49)" fill="#49a4bc"/>
  </g>
</svg>
