<svg id="StackOverflow" xmlns="http://www.w3.org/2000/svg" width="129.001" height="129.001" viewBox="0 0 129.001 129.001">
  <g id="Exclusion_4" data-name="Exclusion 4" transform="translate(-20 -56)" fill="#ff9e27">
    <path d="M 84.50009918212891 184.7504119873047 C 75.82614898681641 184.7504119873047 67.41184997558594 183.0516510009766 59.49089813232422 179.7013397216797 C 55.68399810791016 178.0911560058594 52.01208114624023 176.0980834960938 48.5771484375 173.7774963378906 C 45.17494964599609 171.4789733886719 41.97566604614258 168.8392944335938 39.06814956665039 165.9317169189453 C 36.16059875488281 163.0241394042969 33.52093124389648 159.8248443603516 31.22248268127441 156.4226531982422 C 28.90205001831055 152.9879608154297 26.90901565551758 149.3160400390625 25.29874992370605 145.5089263916016 C 21.94851493835449 137.5880279541016 20.24979972839355 129.1738433837891 20.24979972839355 120.5001068115234 C 20.24979972839355 111.826171875 21.94851493835449 103.4118576049805 25.29874992370605 95.49090576171875 C 26.90901565551758 91.68380737304688 28.90205001831055 88.01188659667969 31.22248268127441 84.57715606689453 C 33.52099990844727 81.17490386962891 36.16064834594727 77.97562408447266 39.06814956665039 75.06815338134766 C 41.97561645507812 72.16065979003906 45.17490005493164 69.52100372314453 48.5771484375 67.22248840332031 C 52.01188278198242 64.90205383300781 55.68379974365234 62.90902328491211 59.49089813232422 61.29875564575195 C 67.41184997558594 57.94852447509766 75.82616424560547 56.24980545043945 84.50009918212891 56.24980545043945 C 93.17383575439453 56.24980545043945 101.5880126953125 57.94852447509766 109.508918762207 61.29875564575195 C 113.316032409668 62.90902328491211 116.9879455566406 64.90205383300781 120.4226455688477 67.22248840332031 C 123.8248291015625 69.52094268798828 127.0241317749023 72.16060638427734 129.9317169189453 75.06815338134766 C 132.8392944335938 77.97566986083984 135.4789886474609 81.17495727539062 137.7774810791016 84.57715606689453 C 140.0980224609375 88.01199340820312 142.0910797119141 91.68390655517578 143.7013092041016 95.49090576171875 C 147.0516510009766 103.4118576049805 148.7503967285156 111.826171875 148.7503967285156 120.5001068115234 C 148.7503967285156 129.1738433837891 147.0516510009766 137.5880279541016 143.7013092041016 145.5089263916016 C 142.0911254882812 149.3158264160156 140.0980682373047 152.9877471923828 137.7774810791016 156.4226531982422 C 135.4789276123047 159.8249053955078 132.8392333984375 163.0242004394531 129.9317169189453 165.9317169189453 C 127.024299621582 168.8391723632812 123.8249816894531 171.4788665771484 120.4226455688477 173.7774963378906 C 116.9878158569336 176.0980072021484 113.3159027099609 178.0910949707031 109.508918762207 179.7013397216797 C 101.5880126953125 183.0516510009766 93.17385101318359 184.7504119873047 84.50009918212891 184.7504119873047 Z M 47.87099838256836 128.3924102783203 C 46.79769897460938 128.3924102783203 45.92449951171875 129.1800079345703 45.92449951171875 130.1481018066406 L 45.92449951171875 158.2506103515625 C 45.92449951171875 159.2187042236328 46.79769897460938 160.0063018798828 47.87099838256836 160.0063018798828 L 115.511833190918 160.1314086914062 L 115.5301132202148 160.1314392089844 L 115.5482177734375 160.1287994384766 C 115.5902328491211 160.1227111816406 116.5837173461914 159.9729461669922 117.1244506835938 159.4102325439453 C 117.6726989746094 158.8407440185547 117.7127990722656 157.9024353027344 117.7142333984375 157.86279296875 L 117.7144165039062 157.8578186035156 L 117.7144012451172 157.8528747558594 L 117.6208267211914 130.4510040283203 C 117.6274261474609 130.3406066894531 117.6610946655273 129.4981384277344 117.1956481933594 128.9977416992188 C 116.7187652587891 128.4850158691406 115.9628295898438 128.3973541259766 115.9308853149414 128.3938751220703 L 115.9173812866211 128.3924102783203 L 115.9038009643555 128.3924102783203 L 110.8683013916016 128.3924102783203 L 110.8610992431641 128.3924102783203 L 110.8539123535156 128.392822265625 C 110.8185348510742 128.3948516845703 109.9822998046875 128.4491729736328 109.5154800415039 129.0076751708984 C 109.0791702270508 129.5308532714844 109.1340637207031 130.3294219970703 109.145881652832 130.4556274414062 L 109.1224975585938 150.4968109130859 L 109.1224822998047 150.5142059326172 L 109.1248626708984 150.5314178466797 C 109.1496963500977 150.719970703125 109.1652145385742 151.2643585205078 108.9400634765625 151.5040588378906 C 108.6782150268555 151.7828979492188 108.2729110717773 151.8887023925781 108.1786956787109 151.9102020263672 L 55.86674880981445 151.6916046142578 L 55.85748291015625 151.6915740966797 L 55.84816741943359 151.6922302246094 C 55.84763336181641 151.6922607421875 55.79486465454102 151.6958923339844 55.71305084228516 151.6958923339844 C 55.3350830078125 151.6958923339844 55.00726699829102 151.6272430419922 54.81364822387695 151.5075531005859 C 54.54389953613281 151.3411407470703 54.41751098632812 150.8131866455078 54.39053726196289 150.6195678710938 L 54.57038116455078 130.1503143310547 C 54.57040023803711 129.1800079345703 53.69759750366211 128.3924102783203 52.62479782104492 128.3924102783203 L 47.87099838256836 128.3924102783203 Z M 100.2787857055664 136.2485046386719 L 63.11778259277344 136.2665100097656 C 62.15328216552734 136.2665100097656 61.36849975585938 137.0516967773438 61.36849975585938 138.0167999267578 L 61.36849975585938 143.0162963867188 C 61.36849975585938 143.9814300537109 62.15328216552734 144.7666015625 63.11790084838867 144.7666015625 L 100.2790145874023 144.7485961914062 C 101.2435150146484 144.7485961914062 102.0282974243164 143.9634246826172 102.0282974243164 142.9983062744141 L 102.0282974243164 137.9988098144531 C 102.0282974243164 137.03369140625 101.2435150146484 136.2485046386719 100.2789001464844 136.2485046386719 L 100.2788314819336 136.2485046386719 L 100.2787857055664 136.2485046386719 Z M 65.59754943847656 118.6007080078125 C 64.7774658203125 118.6007766723633 64.05799865722656 119.1838760375977 63.88678359985352 119.987190246582 L 62.84726715087891 124.8779220581055 C 62.6470832824707 125.8212738037109 63.25178146362305 126.7524261474609 64.19523620605469 126.9537048339844 L 100.3871307373047 134.6460418701172 C 100.5074310302734 134.6715698242188 100.6302185058594 134.6845092773438 100.7521362304688 134.6845092773438 C 101.5722122192383 134.6845245361328 102.2917022705078 134.1014251708984 102.4629135131836 133.2980041503906 L 103.5024337768555 128.4072875976562 C 103.7026138305664 127.4639434814453 103.0979156494141 126.5327911376953 102.1544647216797 126.3315048217773 L 65.96256256103516 118.6391754150391 C 65.84228515625 118.613639831543 65.71949768066406 118.6007080078125 65.59756469726562 118.6007080078125 L 65.59754943847656 118.6007080078125 Z M 71.46576690673828 100.8078231811523 C 70.78816223144531 100.8078384399414 70.16529846191406 101.2045211791992 69.87892913818359 101.8184204101562 L 67.76573181152344 106.3499374389648 C 67.35821533203125 107.2246704101562 67.73788452148438 108.267936706543 68.61201477050781 108.6756744384766 L 102.145133972168 124.3131713867188 C 102.3791656494141 124.4222030639648 102.6277313232422 124.4774703979492 102.8840179443359 124.4774932861328 C 103.5616149902344 124.4775238037109 104.1844787597656 124.0808410644531 104.4708633422852 123.4668884277344 L 106.5840835571289 118.934455871582 C 106.7812957763672 118.511604309082 106.8017959594727 118.0366592407227 106.6417846679688 117.5971374511719 C 106.4817810058594 117.1576232910156 106.1607360839844 116.8069229125977 105.7377853393555 116.6096420288086 L 72.20466613769531 100.9721374511719 C 71.97063446044922 100.8630905151367 71.72206878662109 100.8078231811523 71.46576690673828 100.8078231811523 Z M 82.61056518554688 84.08609008789062 C 82.09168243408203 84.08609008789062 81.60282897949219 84.31387329101562 81.26934814453125 84.71103668212891 L 78.05538177490234 88.54152679443359 C 77.75476837158203 88.89949035644531 77.61164855957031 89.35314178466797 77.65248107910156 89.81878662109375 C 77.69329833984375 90.284423828125 77.91320037841797 90.70640563964844 78.27166748046875 91.00697326660156 L 106.6144027709961 114.7903060913086 C 106.9295349121094 115.0541076660156 107.3287353515625 115.1992721557617 107.7387313842773 115.1992721557617 C 108.2579498291016 115.1992721557617 108.7470626831055 114.9714431762695 109.0806503295898 114.5741729736328 L 112.2946166992188 110.7436904907227 C 112.9142150878906 110.0045928955078 112.8172149658203 108.8986740112305 112.0784683227539 108.2783584594727 L 83.73469543457031 84.49578857421875 C 83.42009735107422 84.23162078857422 83.02085113525391 84.08609008789062 82.61056518554688 84.08609008789062 Z M 96.75396728515625 71.77520751953125 C 96.36070251464844 71.77523803710938 95.98868560791016 71.90340423583984 95.67814636230469 72.14585876464844 L 91.73786926269531 75.22482299804688 C 91.36965179443359 75.51188659667969 91.13531494140625 75.92552185058594 91.07823181152344 76.38935852050781 C 91.02106475830078 76.85369110107422 91.14833068847656 77.31239318847656 91.43658447265625 77.68092346191406 L 114.2154998779297 106.8372268676758 C 114.5494003295898 107.2647552490234 115.0522155761719 107.510009765625 115.5950012207031 107.5100402832031 C 115.9885482788086 107.5100402832031 116.3608169555664 107.3815765380859 116.6716003417969 107.138542175293 L 120.611701965332 104.0606231689453 C 121.3720321655273 103.4668197631836 121.507682800293 102.3650741577148 120.9140625 101.6046752929688 L 98.13410186767578 72.44818878173828 C 97.80007934570312 72.02045440673828 97.29701232910156 71.77515411376953 96.75395202636719 71.77520751953125 L 96.75396728515625 71.77520751953125 Z" stroke="none"/>
    <path d="M 84.50009918212891 184.5004119873047 C 93.14019775390625 184.5004119873047 101.521614074707 182.8083038330078 109.4115142822266 179.4710845947266 C 113.2036514282227 177.8671264648438 116.8612289428711 175.8818206787109 120.2826995849609 173.5703277587891 C 123.6718292236328 171.2806243896484 126.8587646484375 168.6511535644531 129.7549438476562 165.7549591064453 C 132.6512145996094 162.8586883544922 135.2806854248047 159.6717529296875 137.5703125 156.2826995849609 C 139.8818664550781 152.8611602783203 141.8671722412109 149.2035675048828 143.4710693359375 145.4115295410156 C 146.8082885742188 137.5216064453125 148.5003967285156 129.1402130126953 148.5003967285156 120.5001068115234 C 148.5003967285156 111.8598098754883 146.8082885742188 103.478271484375 143.4710693359375 95.58831024169922 C 141.8671112060547 91.79615783691406 139.8818359375 88.13857269287109 137.5703125 84.71710968017578 C 135.2807312011719 81.32810974121094 132.6512603759766 78.14118957519531 129.7549438476562 75.24492645263672 C 126.8586120605469 72.34862518310547 123.6716842651367 69.71919250488281 120.2826995849609 67.42965698242188 C 116.8613662719727 65.11825561523438 113.2037811279297 63.13299179077148 109.4115142822266 61.52900695800781 C 101.521598815918 58.19187164306641 93.14019775390625 56.49980545043945 84.50009918212891 56.49980545043945 C 75.85980224609375 56.49980545043945 67.47826385498047 58.19187164306641 59.58829879760742 61.52900695800781 C 55.79605102539062 63.13299179077148 52.13846588134766 65.11824035644531 48.71709823608398 67.42965698242188 C 45.32804870605469 69.71925354003906 42.14113235473633 72.34869384765625 39.24491500854492 75.24492645263672 C 36.34868240356445 78.14114379882812 33.7192497253418 81.32805633544922 31.42964935302734 84.71710968017578 C 29.11823272705078 88.13847351074219 27.13298225402832 91.79605865478516 25.52899932861328 95.58828735351562 C 22.19186592102051 103.478271484375 20.49979972839355 111.8598098754883 20.49979972839355 120.5001068115234 C 20.49979972839355 129.1402130126953 22.19186592102051 137.5216064453125 25.52899932861328 145.4115295410156 C 27.13298225402832 149.2037963867188 29.11824989318848 152.8613739013672 31.42964935302734 156.2826995849609 C 33.71918106079102 159.6716918945312 36.34861755371094 162.8586273193359 39.24491500854492 165.7549591064453 C 42.14118194580078 168.6512603759766 45.32809829711914 171.2807159423828 48.71709823608398 173.5703277587891 C 52.13864898681641 175.8818969726562 55.79624938964844 177.8671875 59.58829879760742 179.4710845947266 C 67.47824859619141 182.8083038330078 75.85977935791016 184.5004119873047 84.50009918212891 184.5004119873047 M 47.87099838256836 128.1424102783203 L 52.62479782104492 128.1424102783203 C 53.83544921875 128.1424102783203 54.82040023803711 129.0421600341797 54.82038116455078 130.1525115966797 L 54.64070510864258 150.6025695800781 C 54.67691421508789 150.840087890625 54.79978561401367 151.2052612304688 54.94511413574219 151.2949066162109 C 55.09804916381836 151.3894500732422 55.38511657714844 151.4458923339844 55.71305084228516 151.4458923339844 C 55.78459930419922 151.4458923339844 55.83048248291016 151.4428405761719 55.83068084716797 151.4428405761719 L 55.84926605224609 151.4415435791016 L 55.86778259277344 151.4416046142578 L 108.1509246826172 151.6600799560547 C 108.2891159057617 151.6254272460938 108.5796966552734 151.5225982666016 108.7578506469727 151.3328857421875 C 108.8826675415039 151.2000122070312 108.9071350097656 150.8001556396484 108.8772354125977 150.5657348632812 L 108.8724670410156 150.5313110351562 L 108.8724975585938 150.4965209960938 L 108.895866394043 130.4677124023438 C 108.8783493041992 130.2728424072266 108.8356018066406 129.4325714111328 109.3236694335938 128.8473358154297 C 109.8500518798828 128.2175903320312 110.7397994995117 128.1489868164062 110.8395156860352 128.1432342529297 L 110.8538970947266 128.1424102783203 L 110.8683013916016 128.1424102783203 L 115.9038009643555 128.1424102783203 L 115.9309692382812 128.1424102783203 L 115.9579620361328 128.1453552246094 C 115.9936828613281 128.1492462158203 116.8391342163086 128.2473602294922 117.3787002563477 128.8274688720703 C 117.9037017822266 129.3918762207031 117.8811569213867 130.2807159423828 117.8708572387695 130.4585723876953 L 117.9644012451172 157.8520202636719 L 117.9644317626953 157.8619384765625 L 117.9640655517578 157.8718414306641 C 117.9625015258789 157.9154052734375 117.9183349609375 158.9460754394531 117.3047180175781 159.5834503173828 C 116.7153167724609 160.19677734375 115.6981658935547 160.3596801757812 115.5841293334961 160.376220703125 L 115.5479354858398 160.3814697265625 L 115.5113830566406 160.3814086914062 L 47.87099838256836 160.2563018798828 C 46.65985107421875 160.2563018798828 45.67449951171875 159.3565521240234 45.67449951171875 158.2506103515625 L 45.67449951171875 130.1481018066406 C 45.67449951171875 129.0421600341797 46.65985107421875 128.1424102783203 47.87099838256836 128.1424102783203 M 100.2786483764648 135.9985046386719 L 100.2787857055664 135.9985046386719 L 100.2789001464844 135.9985046386719 C 101.3813629150391 135.9985046386719 102.2782974243164 136.8958435058594 102.2782974243164 137.9988098144531 L 102.2782974243164 142.9983062744141 C 102.2782974243164 144.1012725830078 101.3813629150391 144.9985961914062 100.2791519165039 144.9985961914062 L 63.11790084838867 145.0166015625 C 62.01543426513672 145.0166015625 61.11849975585938 144.1192779541016 61.11849975585938 143.0162963867188 L 61.11849975585938 138.0167999267578 C 61.11849975585938 136.9138336181641 62.01543426513672 136.0165100097656 63.11764907836914 136.0165100097656 L 100.2786483764648 135.9985046386719 M 65.5975341796875 118.3507080078125 L 65.59756469726562 118.3507080078125 C 65.73691558837891 118.3507080078125 65.87715148925781 118.3654708862305 66.01454925537109 118.3946228027344 L 102.2066192626953 126.0870056152344 C 103.2847518920898 126.317024230957 103.9757690429688 127.3811416625977 103.7469635009766 128.4592590332031 L 102.7074127197266 133.3501281738281 C 102.5117797851562 134.2681884765625 101.6894683837891 134.9345245361328 100.7521362304688 134.9345092773438 C 100.6128158569336 134.9345092773438 100.4725799560547 134.9197387695312 100.3351516723633 134.8905944824219 L 64.14308166503906 127.1982040405273 C 63.06494903564453 126.9681930541992 62.37393188476562 125.9040756225586 62.60273361206055 124.8259582519531 L 63.64228439331055 119.9350891113281 C 63.83791732788086 119.0171051025391 64.66021728515625 118.3507766723633 65.5975341796875 118.3507080078125 M 71.46575164794922 100.5578231811523 L 71.46576690673828 100.5578231811523 C 71.75881958007812 100.5578231811523 72.04291534423828 100.6209564208984 72.31031799316406 100.7455596923828 L 105.8434677124023 116.3830718994141 C 106.3269195556641 116.6085891723633 106.6938629150391 117.0093765258789 106.8767013549805 117.511604309082 C 107.0595626831055 118.0139083862305 107.0361022949219 118.556755065918 106.8106689453125 119.0400924682617 L 104.6974334716797 123.5725708007812 C 104.3701477050781 124.2742080688477 103.6583480834961 124.7275390625 102.8840026855469 124.7274932861328 C 102.5909652709961 124.7274703979492 102.3069000244141 124.6643371582031 102.0394821166992 124.5397567749023 L 68.50634765625 108.9022369384766 C 67.50733184814453 108.4362716674805 67.07341766357422 107.2439880371094 67.53914642333984 106.2442932128906 L 69.65236663818359 101.7127380371094 C 69.9796142578125 101.0111770629883 70.69141387939453 100.5578384399414 71.46575164794922 100.5578231811523 M 82.61056518554688 83.83609008789062 C 83.07956695556641 83.83609008789062 83.53591918945312 84.00240325927734 83.8953857421875 84.30427551269531 L 112.2392349243164 108.0868911743164 C 113.0834655761719 108.7957916259766 113.1942825317383 110.0596389770508 112.4861297607422 110.9043884277344 L 109.272102355957 114.7349395751953 C 108.8908996582031 115.1889038085938 108.3320007324219 115.4492721557617 107.7387313842773 115.4492721557617 C 107.2701644897461 115.4492721557617 106.81396484375 115.2834091186523 106.4536972045898 114.9818267822266 L 78.11104583740234 91.19853973388672 C 77.70138549804688 90.85505676269531 77.45008087158203 90.37278747558594 77.40345001220703 89.84062194824219 C 77.35676574707031 89.30838775634766 77.52033233642578 88.78990936279297 77.86386871337891 88.38082122802734 L 81.077880859375 84.55029296875 C 81.45899963378906 84.09640502929688 82.01763153076172 83.83609008789062 82.61056518554688 83.83609008789062 M 96.75392913818359 71.52520751953125 C 97.37451934814453 71.52513885498047 97.94940185546875 71.80548858642578 98.33110046386719 72.29427337646484 L 121.1111145019531 101.4508209228516 C 121.7895660400391 102.3198699951172 121.6345291137695 103.5790252685547 120.7656021118164 104.2576370239258 L 116.8256149291992 107.3354721069336 C 116.4704360961914 107.6132202148438 116.0448989868164 107.7600402832031 115.5949859619141 107.7600402832031 C 114.9747009277344 107.7599868774414 114.4000625610352 107.4797058105469 114.0184860229492 106.9911422729492 L 91.23964691162109 77.83493804931641 C 90.91021728515625 77.41374206542969 90.76478576660156 76.88950347900391 90.83011627197266 76.35882568359375 C 90.89534759521484 75.82864379882812 91.16321563720703 75.35584259033203 91.58393096923828 75.02782440185547 L 95.52431488037109 71.94879150390625 C 95.87919616699219 71.67172241210938 96.30439758300781 71.52525329589844 96.75392913818359 71.52520751953125 M 84.50009918212891 185.0004119873047 C 75.79253387451172 185.0004119873047 67.34546661376953 183.2950286865234 59.39351654052734 179.9315948486328 C 55.57163238525391 178.3150787353516 51.88539886474609 176.314208984375 48.43719863891602 173.9846343994141 C 45.02186584472656 171.6772613525391 41.81016540527344 169.02734375 38.89136505126953 166.1085052490234 C 35.97254943847656 163.1896514892578 33.32266616821289 159.9779357910156 31.01533317565918 156.5626068115234 C 28.68584823608398 153.114501953125 26.68504905700684 149.4282684326172 25.0684986114502 145.6063079833984 C 21.70514869689941 137.6544036865234 19.99979972839355 129.2074584960938 19.99979972839355 120.5001068115234 C 19.99979972839355 111.7925415039062 21.70514869689941 103.3454742431641 25.0684986114502 95.39352416992188 C 26.68504905700684 91.57155609130859 28.68584823608398 87.88532257080078 31.01533317565918 84.43721008300781 C 33.32271575927734 81.02182006835938 35.97259902954102 77.81012725830078 38.89136505126953 74.89137268066406 C 41.81011581420898 71.97261047363281 45.02181625366211 69.32272338867188 48.43719863891602 67.01534271240234 C 51.88531494140625 64.68585968017578 55.57154846191406 62.68505859375 59.39351654052734 61.06850814819336 C 67.34546661376953 57.70515823364258 75.79253387451172 55.99980545043945 84.50009918212891 55.99980545043945 C 93.20745086669922 55.99980545043945 101.6543960571289 57.70515823364258 109.6063003540039 61.06850814819336 C 113.4282684326172 62.68505859375 117.114501953125 64.68585968017578 120.5625991821289 67.01534271240234 C 123.9779357910156 69.32266998291016 127.1896514892578 71.97255706787109 130.1085052490234 74.89137268066406 C 133.0274047851562 77.81022644042969 135.6772918701172 81.02192687988281 137.9846343994141 84.43721008300781 C 140.314208984375 87.88542175292969 142.3150482177734 91.5716552734375 143.9315643310547 95.39352416992188 C 147.2949981689453 103.345458984375 149.0003967285156 111.7925415039062 149.0003967285156 120.5001068115234 C 149.0003967285156 129.2074737548828 147.2949981689453 137.6544189453125 143.9315643310547 145.6063079833984 C 142.3150482177734 149.4281768798828 140.3141937255859 153.1143951416016 137.9846343994141 156.5626068115234 C 135.6772003173828 159.9780120849609 133.0272979736328 163.1897125244141 130.1085052490234 166.1085052490234 C 127.189697265625 169.0273284912109 123.9779815673828 171.6772003173828 120.5625991821289 173.9846343994141 C 117.1144180297852 176.3141937255859 113.4281845092773 178.3150329589844 109.6063003540039 179.9315948486328 C 101.6543960571289 183.2950286865234 93.20745086669922 185.0004119873047 84.50009918212891 185.0004119873047 Z M 47.87099838256836 128.6424102783203 C 46.93555068969727 128.6424102783203 46.17449951171875 129.3178558349609 46.17449951171875 130.1481018066406 L 46.17449951171875 158.2506103515625 C 46.17449951171875 159.0808563232422 46.93555068969727 159.7563018798828 47.87099838256836 159.7563018798828 L 115.5122985839844 159.8814086914062 C 115.521598815918 159.8800506591797 116.4614181518555 159.7393951416016 116.9441986083984 159.2369995117188 C 117.4271850585938 158.7353057861328 117.4640808105469 157.8624572753906 117.4644012451172 157.8537292480469 L 117.3707962036133 130.4433135986328 C 117.3714141845703 130.4350128173828 117.4281692504883 129.6147766113281 117.0125961303711 129.1679992675781 C 116.5982513427734 128.7225189208984 115.9106826782227 128.6431579589844 115.9038009643555 128.6424102783203 L 110.8683013916016 128.6424102783203 C 110.8607788085938 128.6428375244141 110.1060485839844 128.6909332275391 109.7072982788086 129.1679992675781 C 109.310417175293 129.6439056396484 109.3949966430664 130.4353790283203 109.3958969116211 130.4433135986328 L 109.3724975585938 150.4971008300781 C 109.3735809326172 150.5049285888672 109.478385925293 151.2960968017578 109.1222991943359 151.6752014160156 C 108.7647171020508 152.0559692382812 108.209846496582 152.1593017578125 108.2042999267578 152.1603088378906 L 55.86569976806641 151.9416046142578 C 55.86520004272461 151.9416351318359 55.80603408813477 151.9458923339844 55.71305084228516 151.9458923339844 C 55.46439743041992 151.9458923339844 54.99984741210938 151.9165802001953 54.68219757080078 151.7201995849609 C 54.24048233032227 151.4477081298828 54.14134979248047 150.6428833007812 54.14039993286133 150.6347961425781 L 54.32040023803711 130.1481018066406 C 54.32040023803711 129.31787109375 53.55974960327148 128.6424102783203 52.62479782104492 128.6424102783203 L 47.87099838256836 128.6424102783203 Z M 100.2789001464844 136.4985046386719 L 63.11790084838867 136.5165100097656 C 62.29113388061523 136.5165100097656 61.61849975585938 137.1895446777344 61.61849975585938 138.0167999267578 L 61.61849975585938 143.0162963867188 C 61.61849975585938 143.8435668945312 62.29113388061523 144.5166015625 63.11790084838867 144.5166015625 L 100.2789001464844 144.4985961914062 C 101.1056671142578 144.4985961914062 101.7782974243164 143.8255767822266 101.7782974243164 142.9983062744141 L 101.7782974243164 137.9988098144531 C 101.7782974243164 137.1715393066406 101.1056671142578 136.4985046386719 100.2789001464844 136.4985046386719 Z M 65.59756469726562 118.8507080078125 C 64.89471435546875 118.8507537841797 64.27806854248047 119.3506393432617 64.13130187988281 120.039306640625 L 63.09180068969727 124.9299087524414 C 62.92021560668945 125.7384719848633 63.43861770629883 126.5366592407227 64.24739837646484 126.7092056274414 L 100.4391021728516 134.4015045166016 C 100.5423126220703 134.4234008789062 100.6476287841797 134.4345092773438 100.7521362304688 134.4345092773438 C 101.4549789428711 134.4345245361328 102.0716323852539 133.9346466064453 102.2183990478516 133.2459106445312 L 103.2578964233398 128.3553009033203 C 103.4294815063477 127.5467376708984 102.9110794067383 126.7485580444336 102.1023025512695 126.5760040283203 L 65.91059875488281 118.8837051391602 C 65.80739593505859 118.8618087768555 65.70207977294922 118.8507080078125 65.59756469726562 118.8507080078125 Z M 71.46576690673828 101.0578231811523 C 70.88490295410156 101.0578384399414 70.35096740722656 101.3978729248047 70.10549926757812 101.9241104125977 L 67.99230194091797 106.4556045532227 C 67.64301300048828 107.2053604125977 67.96842956542969 108.0996246337891 68.71769714355469 108.449104309082 L 102.2508010864258 124.0866088867188 C 102.4514312744141 124.1800765991211 102.6644821166992 124.2274703979492 102.884033203125 124.2274932861328 C 103.4648818969727 124.2275238037109 103.9988174438477 123.8874893188477 104.2443008422852 123.3612060546875 L 106.3574981689453 118.8288040161133 C 106.526496887207 118.4664764404297 106.5440292358398 118.0594253540039 106.406867980957 117.6826553344727 C 106.2696990966797 117.3058700561523 105.9945526123047 117.0052719116211 105.6321029663086 116.8362045288086 L 72.0989990234375 101.1987075805664 C 71.89836883544922 101.105224609375 71.68531799316406 101.0578231811523 71.46576690673828 101.0578231811523 Z M 82.61056518554688 84.33609008789062 C 82.16574859619141 84.33609008789062 81.74666595458984 84.53135681152344 81.46080017089844 84.87180328369141 L 78.24690246582031 88.70220947265625 C 77.98918151855469 89.00908660888672 77.86653137207031 89.39787292480469 77.90153503417969 89.79694366455078 C 77.93651580810547 90.19606018066406 78.12501525878906 90.55775451660156 78.43229675292969 90.81540679931641 L 106.7751007080078 114.5988082885742 C 107.0450820922852 114.8248062133789 107.3873138427734 114.9492721557617 107.7387313842773 114.9492721557617 C 108.1838989257812 114.9492721557617 108.6032333374023 114.7539596557617 108.8891983032227 114.4134063720703 L 112.1030960083008 110.5830078125 C 112.6341323852539 109.9495391845703 112.5509643554688 109.0015563964844 111.9177017211914 108.4698104858398 L 83.57399749755859 84.68730926513672 C 83.30429840087891 84.46082305908203 82.96215057373047 84.33609008789062 82.61056518554688 84.33609008789062 Z M 96.75398254394531 72.02520751953125 C 96.41698455810547 72.02523803710938 96.09816741943359 72.13510894775391 95.83200073242188 72.34290313720703 L 91.89179992675781 75.42180633544922 C 91.57608032226562 75.66795349121094 91.37528228759766 76.02240753173828 91.32636260986328 76.41989135742188 C 91.27736663818359 76.81788635253906 91.38645172119141 77.21103668212891 91.63349914550781 77.52690887451172 L 114.4124984741211 106.6833038330078 C 114.6987152099609 107.0497894287109 115.1297149658203 107.260009765625 115.5950164794922 107.2600402832031 C 115.9321975708008 107.2600402832031 116.2512130737305 107.1499252319336 116.5176010131836 106.9416046142578 L 120.4578018188477 103.8636093139648 C 121.1095504760742 103.354606628418 121.2258148193359 102.410270690918 120.7170028686523 101.7585067749023 L 97.93709564208984 72.60210418701172 C 97.65074920654297 72.23542022705078 97.21951293945312 72.02515411376953 96.75398254394531 72.02520751953125 Z" stroke="none" fill="#ff9e27"/>
  </g>
</svg>
