<svg id="Mail" xmlns="http://www.w3.org/2000/svg" width="129.001" height="129.001" viewBox="0 0 129.001 129.001">
  <g id="Exclusion_2" data-name="Exclusion 2" transform="translate(-20 -56)" fill="#ff9e27">
    <path d="M 84.50009918212891 184.7504119873047 C 75.82614898681641 184.7504119873047 67.41184997558594 183.0516510009766 59.49089813232422 179.7013397216797 C 55.68399810791016 178.0911560058594 52.01208114624023 176.0980834960938 48.5771484375 173.7774963378906 C 45.17494964599609 171.4789733886719 41.97566604614258 168.8392944335938 39.06814956665039 165.9317169189453 C 36.16059875488281 163.0241394042969 33.52093124389648 159.8248443603516 31.22248268127441 156.4226531982422 C 28.90205001831055 152.9879608154297 26.90901565551758 149.3160400390625 25.29874992370605 145.5089263916016 C 21.94851493835449 137.5880279541016 20.24979972839355 129.1738433837891 20.24979972839355 120.5001068115234 C 20.24979972839355 111.826171875 21.94851493835449 103.4118576049805 25.29874992370605 95.49090576171875 C 26.90901565551758 91.68380737304688 28.90205001831055 88.01188659667969 31.22248268127441 84.57715606689453 C 33.52099990844727 81.17490386962891 36.16064834594727 77.97562408447266 39.06814956665039 75.06815338134766 C 41.97561645507812 72.16065979003906 45.17490005493164 69.52100372314453 48.5771484375 67.22248840332031 C 52.01188278198242 64.90205383300781 55.68379974365234 62.90902328491211 59.49089813232422 61.29875564575195 C 67.41184997558594 57.94852447509766 75.82616424560547 56.24980545043945 84.50009918212891 56.24980545043945 C 93.17383575439453 56.24980545043945 101.5880126953125 57.94852447509766 109.508918762207 61.29875564575195 C 113.316032409668 62.90902328491211 116.9879455566406 64.90205383300781 120.4226455688477 67.22248840332031 C 123.8248291015625 69.52094268798828 127.0241317749023 72.16060638427734 129.9317169189453 75.06815338134766 C 132.8392944335938 77.97566986083984 135.4789886474609 81.17495727539062 137.7774810791016 84.57715606689453 C 140.0980224609375 88.01199340820312 142.0910797119141 91.68390655517578 143.7013092041016 95.49090576171875 C 147.0516510009766 103.4118576049805 148.7503967285156 111.826171875 148.7503967285156 120.5001068115234 C 148.7503967285156 129.1738433837891 147.0516510009766 137.5880279541016 143.7013092041016 145.5089263916016 C 142.0911254882812 149.3158264160156 140.0980682373047 152.9877471923828 137.7774810791016 156.4226531982422 C 135.4789276123047 159.8249053955078 132.8392333984375 163.0242004394531 129.9317169189453 165.9317169189453 C 127.024299621582 168.8391723632812 123.8249816894531 171.4788665771484 120.4226455688477 173.7774963378906 C 116.9878158569336 176.0980072021484 113.3159027099609 178.0910949707031 109.508918762207 179.7013397216797 C 101.5880126953125 183.0516510009766 93.17385101318359 184.7504119873047 84.50009918212891 184.7504119873047 Z M 51.00029754638672 90.74990844726562 C 46.38679885864258 90.74990844726562 42.48920059204102 94.54818725585938 42.48920059204102 99.04410552978516 L 42.63050079345703 142.1117248535156 C 42.63050079345703 146.5989837646484 46.38518142700195 150.2503051757812 51.00029754638672 150.2503051757812 L 117.9999008178711 150.2503051757812 C 120.2150802612305 150.2503051757812 122.3128356933594 149.404296875 123.9067153930664 147.8680877685547 C 125.5164642333984 146.3166046142578 126.4029998779297 144.2547454833984 126.4029998779297 142.0623016357422 L 126.4849014282227 98.99418640136719 C 126.4849014282227 96.80247497558594 125.5837020874023 94.73056030273438 123.9473190307617 93.15966033935547 C 122.3285675048828 91.60570526123047 120.2164001464844 90.74990844726562 117.9999008178711 90.74990844726562 L 51.00029754638672 90.74990844726562 Z M 118.0079956054688 142.9219970703125 L 51.26309967041016 142.9219970703125 C 50.30223083496094 142.9219970703125 49.52050018310547 142.1281585693359 49.52050018310547 141.1524047851562 L 49.61023712158203 101.3646926879883 L 83.40281677246094 128.0609741210938 L 83.40801239013672 128.0650939941406 L 83.41342926025391 128.0689086914062 C 83.43576812744141 128.0847015380859 83.96781921386719 128.4559020996094 84.59819793701172 128.4559020996094 C 85.20736694335938 128.4559020996094 85.87413024902344 128.0999908447266 85.90221405029297 128.0848236083984 L 85.922119140625 128.0740966796875 L 85.93976593017578 128.0599517822266 L 119.2574691772461 101.3837356567383 L 119.7497177124023 141.1555023193359 C 119.7497024536133 142.1281585693359 118.9683837890625 142.9219970703125 118.0079956054688 142.9219970703125 Z M 84.52349853515625 120.4175033569336 C 84.17534637451172 120.4175033569336 83.75039672851562 120.086669921875 83.61603546142578 119.9591903686523 L 83.60831451416016 119.9518585205078 L 83.59953308105469 119.9447708129883 L 56.43947219848633 98.24777221679688 L 112.4460906982422 98.06344604492188 L 85.41111755371094 119.9457931518555 L 85.39979553222656 119.9549407958984 L 85.38961791992188 119.9653549194336 C 85.26564788818359 120.090705871582 84.86717987060547 120.4175033569336 84.52349853515625 120.4175033569336 Z" stroke="none"/>
    <path d="M 84.50009918212891 184.5004119873047 C 93.14019775390625 184.5004119873047 101.521614074707 182.8083038330078 109.4115142822266 179.4710845947266 C 113.2036514282227 177.8671264648438 116.8612289428711 175.8818206787109 120.2826995849609 173.5703277587891 C 123.6718292236328 171.2806243896484 126.8587646484375 168.6511535644531 129.7549438476562 165.7549591064453 C 132.6512145996094 162.8586883544922 135.2806854248047 159.6717529296875 137.5703125 156.2826995849609 C 139.8818664550781 152.8611602783203 141.8671722412109 149.2035675048828 143.4710693359375 145.4115295410156 C 146.8082885742188 137.5216064453125 148.5003967285156 129.1402130126953 148.5003967285156 120.5001068115234 C 148.5003967285156 111.8598098754883 146.8082885742188 103.478271484375 143.4710693359375 95.58831024169922 C 141.8671112060547 91.79615783691406 139.8818359375 88.13857269287109 137.5703125 84.71710968017578 C 135.2807312011719 81.32810974121094 132.6512603759766 78.14118957519531 129.7549438476562 75.24492645263672 C 126.8586120605469 72.34862518310547 123.6716842651367 69.71919250488281 120.2826995849609 67.42965698242188 C 116.8613662719727 65.11825561523438 113.2037811279297 63.13299179077148 109.4115142822266 61.52900695800781 C 101.521598815918 58.19187164306641 93.14019775390625 56.49980545043945 84.50009918212891 56.49980545043945 C 75.85980224609375 56.49980545043945 67.47826385498047 58.19187164306641 59.58829879760742 61.52900695800781 C 55.79605102539062 63.13299179077148 52.13846588134766 65.11824035644531 48.71709823608398 67.42965698242188 C 45.32804870605469 69.71925354003906 42.14113235473633 72.34869384765625 39.24491500854492 75.24492645263672 C 36.34868240356445 78.14114379882812 33.7192497253418 81.32805633544922 31.42964935302734 84.71710968017578 C 29.11823272705078 88.13847351074219 27.13298225402832 91.79605865478516 25.52899932861328 95.58828735351562 C 22.19186592102051 103.478271484375 20.49979972839355 111.8598098754883 20.49979972839355 120.5001068115234 C 20.49979972839355 129.1402130126953 22.19186592102051 137.5216064453125 25.52899932861328 145.4115295410156 C 27.13298225402832 149.2037963867188 29.11824989318848 152.8613739013672 31.42964935302734 156.2826995849609 C 33.71918106079102 159.6716918945312 36.34861755371094 162.8586273193359 39.24491500854492 165.7549591064453 C 42.14118194580078 168.6512603759766 45.32809829711914 171.2807159423828 48.71709823608398 173.5703277587891 C 52.13864898681641 175.8818969726562 55.79624938964844 177.8671875 59.58829879760742 179.4710845947266 C 67.47824859619141 182.8083038330078 75.85977935791016 184.5004119873047 84.50009918212891 184.5004119873047 M 51.00029754638672 90.49990844726562 L 117.9999008178711 90.49990844726562 C 120.2812652587891 90.49990844726562 122.4549179077148 91.38043975830078 124.1204528808594 92.97930908203125 C 125.806396484375 94.59780883789062 126.7349014282227 96.73375701904297 126.7349014282227 98.99465942382812 L 126.6529998779297 142.0623016357422 C 126.6529998779297 144.3232727050781 125.7392959594727 146.4490661621094 124.0802154541016 148.0481109619141 C 122.4394836425781 149.6294250488281 120.2801361083984 150.5003051757812 117.9999008178711 150.5003051757812 L 51.00029754638672 150.5003051757812 C 46.24733352661133 150.5003051757812 42.38050079345703 146.7368469238281 42.38050079345703 142.1125335693359 L 42.23920059204102 99.04410552978516 C 42.23920059204102 94.41267395019531 46.25130081176758 90.49990844726562 51.00029754638672 90.49990844726562 M 118.0079956054688 142.6719970703125 C 118.8295288085938 142.6719970703125 119.4980621337891 141.9920043945312 119.4996948242188 141.1555023193359 L 119.0138320922852 101.8990859985352 L 86.09601593017578 128.255126953125 L 86.06071472167969 128.2833862304688 L 86.02091217041016 128.3048553466797 C 85.94481658935547 128.3459014892578 85.25843048095703 128.7059020996094 84.59819793701172 128.7059020996094 C 83.88922882080078 128.7059020996094 83.29405212402344 128.2906951904297 83.26906585693359 128.2730102539062 L 83.25824737548828 128.2653503417969 L 83.24784851074219 128.2571411132812 L 49.85907745361328 101.8798675537109 L 49.77050018310547 141.1524047851562 C 49.77050018310547 141.9903106689453 50.44008255004883 142.6719970703125 51.26309967041016 142.6719970703125 L 118.0079956054688 142.6719970703125 M 84.52349853515625 120.1675033569336 C 84.75871276855469 120.1675033569336 85.08948516845703 119.912223815918 85.21084594726562 119.7906036376953 L 85.231201171875 119.769775390625 L 85.25382995605469 119.7514572143555 L 111.7369613647461 98.31578063964844 L 57.15003967285156 98.49543762207031 L 83.75558471679688 119.7494583129883 L 83.77130126953125 119.7616882324219 L 83.78776550292969 119.7775039672852 C 83.92289733886719 119.9047546386719 84.28053283691406 120.1675033569336 84.52349853515625 120.1675033569336 M 84.50009918212891 185.0004119873047 C 75.79253387451172 185.0004119873047 67.34546661376953 183.2950286865234 59.39351654052734 179.9315948486328 C 55.57163238525391 178.3150787353516 51.88539886474609 176.314208984375 48.43719863891602 173.9846343994141 C 45.02186584472656 171.6772613525391 41.81016540527344 169.02734375 38.89136505126953 166.1085052490234 C 35.97254943847656 163.1896514892578 33.32266616821289 159.9779357910156 31.01533317565918 156.5626068115234 C 28.68584823608398 153.114501953125 26.68504905700684 149.4282684326172 25.0684986114502 145.6063079833984 C 21.70514869689941 137.6544036865234 19.99979972839355 129.2074584960938 19.99979972839355 120.5001068115234 C 19.99979972839355 111.7925415039062 21.70514869689941 103.3454742431641 25.0684986114502 95.39352416992188 C 26.68504905700684 91.57155609130859 28.68584823608398 87.88532257080078 31.01533317565918 84.43721008300781 C 33.32271575927734 81.02182006835938 35.97259902954102 77.81012725830078 38.89136505126953 74.89137268066406 C 41.81011581420898 71.97261047363281 45.02181625366211 69.32272338867188 48.43719863891602 67.01534271240234 C 51.88531494140625 64.68585968017578 55.57154846191406 62.68505859375 59.39351654052734 61.06850814819336 C 67.34546661376953 57.70515823364258 75.79253387451172 55.99980545043945 84.50009918212891 55.99980545043945 C 93.20745086669922 55.99980545043945 101.6543960571289 57.70515823364258 109.6063003540039 61.06850814819336 C 113.4282684326172 62.68505859375 117.114501953125 64.68585968017578 120.5625991821289 67.01534271240234 C 123.9779357910156 69.32266998291016 127.1896514892578 71.97255706787109 130.1085052490234 74.89137268066406 C 133.0274047851562 77.81022644042969 135.6772918701172 81.02192687988281 137.9846343994141 84.43721008300781 C 140.314208984375 87.88542175292969 142.3150482177734 91.5716552734375 143.9315643310547 95.39352416992188 C 147.2949981689453 103.345458984375 149.0003967285156 111.7925415039062 149.0003967285156 120.5001068115234 C 149.0003967285156 129.2074737548828 147.2949981689453 137.6544189453125 143.9315643310547 145.6063079833984 C 142.3150482177734 149.4281768798828 140.3141937255859 153.1143951416016 137.9846343994141 156.5626068115234 C 135.6772003173828 159.9780120849609 133.0272979736328 163.1897125244141 130.1085052490234 166.1085052490234 C 127.189697265625 169.0273284912109 123.9779815673828 171.6772003173828 120.5625991821289 173.9846343994141 C 117.1144180297852 176.3141937255859 113.4281845092773 178.3150329589844 109.6063003540039 179.9315948486328 C 101.6543960571289 183.2950286865234 93.20745086669922 185.0004119873047 84.50009918212891 185.0004119873047 Z M 51.00029754638672 90.99990844726562 C 46.52231597900391 90.99990844726562 42.73920059204102 94.68370819091797 42.73920059204102 99.04410552978516 L 42.88050079345703 142.1109008789062 C 42.88050079345703 146.4611358642578 46.52303314208984 150.0003051757812 51.00029754638672 150.0003051757812 L 117.9999008178711 150.0003051757812 C 120.1500473022461 150.0003051757812 122.1861801147461 149.1791381835938 123.7332305908203 147.6880950927734 C 125.2936477661133 146.1841583251953 126.1529998779297 144.1862182617188 126.1529998779297 142.0623016357422 L 126.2349014282227 98.99370574951172 C 126.2349014282227 96.87117004394531 125.3610000610352 94.86332702636719 123.7741851806641 93.34000396728516 C 122.2022323608398 91.83097076416016 120.1515502929688 90.99990844726562 117.9999008178711 90.99990844726562 L 51.00029754638672 90.99990844726562 Z M 118.0079956054688 143.1719970703125 L 51.26309967041016 143.1719970703125 C 50.16438293457031 143.1719970703125 49.27050018310547 142.2660064697266 49.27050018310547 141.1524047851562 L 49.36140060424805 100.8495101928711 L 83.55780029296875 127.8648071289062 C 83.56258392333984 127.8681869506836 84.0469970703125 128.2059020996094 84.59819793701172 128.2059020996094 C 85.14514923095703 128.2059020996094 85.77718353271484 127.8682250976562 85.78351593017578 127.8648071289062 L 119.5011138916016 100.868408203125 L 119.9997024536133 141.1524047851562 C 119.9997024536133 142.2660217285156 119.1062316894531 143.1719970703125 118.0079956054688 143.1719970703125 Z M 84.52349853515625 120.6675033569336 C 83.99866485595703 120.6675033569336 83.44899749755859 120.145393371582 83.44349670410156 120.1401062011719 L 55.72890090942383 98.00010681152344 L 113.1551971435547 97.81110382080078 L 85.56839752197266 120.1401062011719 C 85.56333160400391 120.1452865600586 85.04808044433594 120.6675033569336 84.52349853515625 120.6675033569336 Z" stroke="none" fill="#ff9e27"/>
  </g>
</svg>
